<svg width="30" height="29" viewBox="0 0 30 29" fill="none" xmlns="http://www.w3.org/2000/svg">
<path d="M14.8854 0.0922852C12.9934 0.0922852 11.1199 0.46495 9.37185 1.189C7.62384 1.91305 6.03555 2.97431 4.69768 4.31218C1.99573 7.01414 0.477783 10.6788 0.477783 14.4999C0.477783 20.8681 4.61277 26.271 10.3326 28.1872C11.053 28.3024 11.2835 27.8558 11.2835 27.4668V25.0319C7.29259 25.8964 6.44254 23.1013 6.44254 23.1013C5.77979 21.43 4.8433 20.9834 4.8433 20.9834C3.5322 20.0901 4.94415 20.1189 4.94415 20.1189C6.38491 20.2197 7.14852 21.6029 7.14852 21.6029C8.40198 23.7928 10.5199 23.1445 11.3411 22.7987C11.4708 21.8622 11.8454 21.2283 12.2488 20.8681C9.05033 20.5079 5.69335 19.2688 5.69335 13.7795C5.69335 12.1803 6.24084 10.898 7.17733 9.87507C7.03326 9.51488 6.52899 8.01648 7.32141 6.07145C7.32141 6.07145 8.53165 5.68245 11.2835 7.54103C12.4217 7.22406 13.6608 7.06558 14.8854 7.06558C16.1101 7.06558 17.3491 7.22406 18.4873 7.54103C21.2392 5.68245 22.4494 6.07145 22.4494 6.07145C23.2418 8.01648 22.7376 9.51488 22.5935 9.87507C23.53 10.898 24.0775 12.1803 24.0775 13.7795C24.0775 19.2833 20.7061 20.4935 17.4932 20.8537C18.0119 21.3003 18.4873 22.1792 18.4873 23.5191V27.4668C18.4873 27.8558 18.7178 28.3168 19.4526 28.1872C25.1725 26.2565 29.2931 20.8681 29.2931 14.4999C29.2931 12.6079 28.9204 10.7344 28.1963 8.98636C27.4723 7.23834 26.411 5.65006 25.0732 4.31218C23.7353 2.97431 22.147 1.91305 20.399 1.189C18.651 0.46495 16.7775 0.0922852 14.8854 0.0922852Z" fill="#FFA400"/>
</svg>
