<svg width="27" height="27" viewBox="0 0 27 27" fill="none" xmlns="http://www.w3.org/2000/svg">
<path d="M23.2458 0.532959C24.01 0.532959 24.743 0.836547 25.2834 1.37694C25.8238 1.91733 26.1273 2.65026 26.1273 3.41449V23.5852C26.1273 24.3494 25.8238 25.0823 25.2834 25.6227C24.743 26.1631 24.01 26.4667 23.2458 26.4667H3.07513C2.3109 26.4667 1.57797 26.1631 1.03758 25.6227C0.497192 25.0823 0.193604 24.3494 0.193604 23.5852V3.41449C0.193604 2.65026 0.497192 1.91733 1.03758 1.37694C1.57797 0.836547 2.3109 0.532959 3.07513 0.532959H23.2458ZM22.5254 22.8648V15.2287C22.5254 13.9831 22.0306 12.7884 21.1497 11.9075C20.2689 11.0267 19.0742 10.5319 17.8285 10.5319C16.6039 10.5319 15.1775 11.2811 14.486 12.4049V10.8056H10.4662V22.8648H14.486V15.7618C14.486 14.6524 15.3793 13.7448 16.4886 13.7448C17.0236 13.7448 17.5366 13.9573 17.9149 14.3355C18.2932 14.7138 18.5057 15.2269 18.5057 15.7618V22.8648H22.5254ZM5.78377 8.5436C6.42572 8.5436 7.04138 8.28859 7.49531 7.83466C7.94923 7.38073 8.20425 6.76507 8.20425 6.12312C8.20425 4.78321 7.12368 3.68823 5.78377 3.68823C5.13799 3.68823 4.51867 3.94476 4.06204 4.40139C3.60541 4.85802 3.34888 5.47735 3.34888 6.12312C3.34888 7.46303 4.44386 8.5436 5.78377 8.5436ZM7.78643 22.8648V10.8056H3.79551V22.8648H7.78643Z" fill="#FFA400"/>
</svg>
