<svg width="215" height="41" viewBox="0 0 215 41" fill="none" xmlns="http://www.w3.org/2000/svg">
<path d="M22.8247 16.4062C25.0116 16.4062 26.7951 18.1897 26.7951 20.4191C26.7951 22.5423 25.0116 24.3471 22.8247 24.3471C20.6377 24.3471 18.8542 22.5423 18.8542 20.4191C18.8542 18.1897 20.6377 16.4062 22.8247 16.4062ZM12.9941 37.4049C14.3318 38.2117 17.2618 36.9803 20.6377 33.7954C19.5337 32.5427 18.4508 31.1839 17.4317 29.7613C15.7207 29.5976 14.0197 29.3424 12.3359 28.9969C11.2531 33.5406 11.6565 36.6618 12.9941 37.4049M14.5016 25.2176L13.8859 24.1348C13.6523 24.7505 13.4188 25.3662 13.2702 25.9607C13.8434 26.0881 14.4804 26.1943 15.1386 26.3004L14.5016 25.2176ZM28.3875 23.604L30.1073 20.4191L28.3875 17.2343C27.7505 16.109 27.0711 15.1111 26.4554 14.1131C25.3088 14.0494 24.0986 14.0494 22.8247 14.0494C21.5507 14.0494 20.3405 14.0494 19.1939 14.1131C18.5782 15.1111 17.8988 16.109 17.2618 17.2343L15.542 20.4191L17.2618 23.604C17.8988 24.7293 18.5782 25.7272 19.1939 26.7251C20.3405 26.7888 21.5507 26.7888 22.8247 26.7888C24.0986 26.7888 25.3088 26.7888 26.4554 26.7251C27.0711 25.7272 27.7505 24.7293 28.3875 23.604M22.8247 9.33589C22.4212 9.803 21.9966 10.2913 21.572 10.8646H24.0774C23.6527 10.2913 23.2281 9.803 22.8247 9.33589ZM22.8247 31.5023C23.2281 31.0352 23.6527 30.5469 24.0774 29.9736H21.572C21.9966 30.5469 22.4212 31.0352 22.8247 31.5023ZM32.634 3.43332C31.3176 2.6265 28.3875 3.85797 25.0116 7.0428C26.1157 8.29551 27.1985 9.65437 28.2176 11.0769C29.9587 11.2468 31.6785 11.5016 33.3134 11.8413C34.3962 7.29759 33.9928 4.17645 32.634 3.43332ZM31.1477 15.6206L31.7634 16.7035C31.997 16.0877 32.2305 15.472 32.3792 14.8775C31.8059 14.7501 31.1689 14.6439 30.5107 14.5378L31.1477 15.6206M34.2264 0.6519C37.3475 2.43541 37.6872 7.12773 36.3708 12.6057C41.7638 14.1981 45.6493 16.8309 45.6493 20.4191C45.6493 24.0074 41.7638 26.6402 36.3708 28.2326C37.6872 33.7105 37.3475 38.4028 34.2264 40.1863C31.1265 41.9698 26.9012 39.9315 22.8247 36.046C18.7481 39.9315 14.5229 41.9698 11.4017 40.1863C8.30181 38.4028 7.96209 33.7105 9.27849 28.2326C3.8855 26.6402 0 24.0074 0 20.4191C0 16.8309 3.8855 14.1981 9.27849 12.6057C7.96209 7.12773 8.30181 2.43541 11.4017 0.6519C14.5229 -1.13161 18.7481 0.906686 22.8247 4.79219C26.9012 0.906686 31.1265 -1.13161 34.2264 0.6519ZM33.6106 20.4191C34.3325 22.0115 34.9695 23.604 35.5003 25.2176C39.9591 23.88 42.4645 21.9691 42.4645 20.4191C42.4645 18.8692 39.9591 16.9583 35.5003 15.6206C34.9695 17.2343 34.3325 18.8267 33.6106 20.4191ZM12.0387 20.4191C11.3168 18.8267 10.6798 17.2343 10.149 15.6206C5.69024 16.9583 3.18484 18.8692 3.18484 20.4191C3.18484 21.9691 5.69024 23.88 10.149 25.2176C10.6798 23.604 11.3168 22.0115 12.0387 20.4191ZM31.1477 25.2176L30.5107 26.3004C31.1689 26.1943 31.8059 26.0881 32.3792 25.9607C32.2305 25.3662 31.997 24.7505 31.7634 24.1348L31.1477 25.2176M25.0116 33.7954C28.3875 36.9803 31.3176 38.2117 32.634 37.4049C33.9928 36.6618 34.3962 33.5406 33.3134 28.9969C31.6785 29.3367 29.9587 29.5914 28.2176 29.7613C27.1985 31.1839 26.1157 32.5427 25.0116 33.7954M14.5016 15.6206L15.1386 14.5378C14.4804 14.6439 13.8434 14.7501 13.2702 14.8775C13.4188 15.472 13.6523 16.0877 13.8859 16.7035L14.5016 15.6206ZM20.6377 7.0428C17.2618 3.85797 14.3318 2.6265 12.9941 3.43332C11.6565 4.17645 11.2531 7.29759 12.3359 11.8413C14.0197 11.4958 15.7207 11.2407 17.4317 11.0769C18.4508 9.65437 19.5337 8.29551 20.6377 7.0428V7.0428Z" fill="url(#paint0_linear_388_522)"/>
<path d="M83.9049 9.78366V16.3279H83.2629C82.8825 14.8182 82.4605 13.7364 81.9969 13.0825C81.5332 12.4168 80.8972 11.8878 80.0889 11.4955C79.6371 11.2815 78.8466 11.1745 77.7172 11.1745H75.9162V29.8266C75.9162 31.0629 75.9816 31.8356 76.1124 32.1447C76.255 32.4538 76.5225 32.7272 76.9148 32.965C77.319 33.1908 77.8658 33.3038 78.5553 33.3038H79.3578V33.9635H66.6972V33.3038H67.4996C68.201 33.3038 68.7657 33.1789 69.1936 32.9293C69.5027 32.7629 69.7464 32.4776 69.9247 32.0734C70.0555 31.7881 70.1209 31.0391 70.1209 29.8266V11.1745H68.3734C66.7447 11.1745 65.5619 11.5193 64.8249 12.2088C63.7906 13.1717 63.1368 14.5447 62.8634 16.3279H62.1858V9.78366H83.9049ZM95.1745 11.1745V21.0177H95.656C97.1895 21.0177 98.301 20.5362 98.9905 19.5733C99.68 18.6104 100.12 17.1898 100.31 15.3115H100.988V27.9721H100.31C100.167 26.5931 99.8643 25.4637 99.4007 24.584C98.9489 23.7043 98.4199 23.1159 97.8136 22.8187C97.2073 22.5096 96.3276 22.3551 95.1745 22.3551V29.1668C95.1745 30.4982 95.228 31.3125 95.335 31.6097C95.4539 31.9069 95.6679 32.1506 95.977 32.3408C96.286 32.531 96.7853 32.6261 97.4748 32.6261H98.9192C101.178 32.6261 102.985 32.1031 104.34 31.057C105.707 30.0108 106.688 28.4179 107.282 26.278H107.942L106.854 33.9635H85.9555V33.3038H86.7579C87.4593 33.3038 88.024 33.1789 88.452 32.9293C88.761 32.7629 88.9988 32.4776 89.1652 32.0734C89.296 31.7881 89.3614 31.0391 89.3614 29.8266V13.9206C89.3614 12.8269 89.3317 12.1553 89.2722 11.9056C89.1533 11.4896 88.9334 11.1686 88.6124 10.9427C88.1607 10.6099 87.5425 10.4434 86.7579 10.4434H85.9555V9.78366H106.195V16.9342H105.517C105.172 15.1867 104.685 13.9325 104.055 13.1717C103.437 12.4109 102.557 11.8521 101.416 11.4955C100.75 11.2815 99.5017 11.1745 97.671 11.1745H95.1745ZM119.283 22.9435V29.7196C119.283 31.0272 119.36 31.8534 119.515 32.1982C119.681 32.531 119.967 32.7985 120.371 33.0006C120.775 33.2027 121.53 33.3038 122.635 33.3038V33.9635H110.26V33.3038C111.378 33.3038 112.133 33.2027 112.525 33.0006C112.929 32.7866 113.208 32.5132 113.363 32.1804C113.529 31.8475 113.613 31.0272 113.613 29.7196V14.0276C113.613 12.72 113.529 11.8997 113.363 11.5668C113.208 11.2221 112.929 10.9487 112.525 10.7466C112.121 10.5445 111.366 10.4434 110.26 10.4434V9.78366H121.494C124.419 9.78366 126.558 9.98575 127.914 10.3899C129.269 10.7941 130.374 11.5431 131.23 12.6367C132.086 13.7185 132.514 14.9905 132.514 16.4527C132.514 18.2359 131.872 19.71 130.588 20.875C129.768 21.6121 128.621 22.1648 127.147 22.5334L132.96 30.7182C133.721 31.7762 134.262 32.4359 134.583 32.6975C135.07 33.066 135.635 33.2681 136.277 33.3038V33.9635H128.663L120.87 22.9435H119.283ZM119.283 11.0854V21.6774H120.299C121.952 21.6774 123.188 21.5288 124.008 21.2317C124.829 20.9226 125.471 20.3757 125.934 19.5911C126.41 18.7946 126.648 17.7604 126.648 16.4884C126.648 14.6458 126.214 13.2846 125.346 12.4049C124.49 11.5252 123.105 11.0854 121.191 11.0854H119.283ZM153.128 9.23087L153.324 17.2908H152.593C152.248 15.2699 151.398 13.6472 150.043 12.4228C148.7 11.1864 147.243 10.5683 145.674 10.5683C144.462 10.5683 143.499 10.8952 142.785 11.549C142.084 12.1909 141.733 12.9339 141.733 13.778C141.733 14.3129 141.858 14.7884 142.108 15.2045C142.452 15.7632 143.005 16.316 143.766 16.8629C144.325 17.2552 145.615 17.9506 147.636 18.9492C150.465 20.3401 152.373 21.6537 153.36 22.89C154.334 24.1263 154.822 25.541 154.822 27.134C154.822 29.1549 154.031 30.8965 152.45 32.3587C150.881 33.809 148.884 34.5341 146.459 34.5341C145.698 34.5341 144.979 34.4569 144.301 34.3023C143.623 34.1478 142.773 33.8565 141.751 33.4286C141.18 33.1908 140.711 33.0719 140.342 33.0719C140.033 33.0719 139.706 33.1908 139.362 33.4286C139.017 33.6663 138.738 34.0289 138.524 34.5163H137.864V25.3865H138.524C139.047 27.9542 140.051 29.9157 141.537 31.2709C143.035 32.6143 144.646 33.2859 146.37 33.2859C147.701 33.2859 148.759 32.9233 149.544 32.1982C150.34 31.473 150.738 30.629 150.738 29.6661C150.738 29.0955 150.584 28.5427 150.275 28.0077C149.977 27.4728 149.52 26.9675 148.902 26.492C148.283 26.0046 147.19 25.3746 145.621 24.6019C143.421 23.5201 141.84 22.5988 140.877 21.8379C139.914 21.0771 139.171 20.2271 138.648 19.288C138.137 18.3488 137.882 17.3146 137.882 16.1853C137.882 14.2594 138.589 12.6189 140.004 11.2637C141.418 9.90848 143.201 9.23087 145.353 9.23087C146.138 9.23087 146.899 9.32598 147.636 9.51618C148.194 9.65884 148.872 9.92631 149.668 10.3186C150.477 10.699 151.041 10.8892 151.362 10.8892C151.671 10.8892 151.915 10.7941 152.094 10.6039C152.272 10.4137 152.438 9.95603 152.593 9.23087H153.128ZM170.407 9.44485C174.258 9.3022 177.385 10.4256 179.786 12.8151C182.199 15.2045 183.406 18.1943 183.406 21.7844C183.406 24.8515 182.509 27.55 180.714 29.8801C178.336 32.9709 174.978 34.5163 170.639 34.5163C166.288 34.5163 162.923 33.0422 160.546 30.094C158.667 27.764 157.728 25.0001 157.728 21.8023C157.728 18.2121 158.947 15.2223 161.384 12.8329C163.833 10.4315 166.84 9.3022 170.407 9.44485ZM170.621 10.5861C168.41 10.5861 166.727 11.7154 165.574 13.9741C164.635 15.8286 164.166 18.4915 164.166 21.9628C164.166 26.0878 164.891 29.1371 166.341 31.1104C167.352 32.4894 168.766 33.1789 170.585 33.1789C171.81 33.1789 172.832 32.8817 173.652 32.2873C174.698 31.5265 175.513 30.314 176.095 28.6497C176.678 26.9735 176.969 24.7921 176.969 22.1054C176.969 18.9076 176.672 16.5181 176.077 14.937C175.483 13.3441 174.722 12.2207 173.795 11.5668C172.879 10.913 171.821 10.5861 170.621 10.5861ZM198.831 9.44485C202.682 9.3022 205.809 10.4256 208.21 12.8151C210.623 15.2045 211.83 18.1943 211.83 21.7844C211.83 24.8515 210.932 27.55 209.137 29.8801C206.76 32.9709 203.401 34.5163 199.062 34.5163C194.711 34.5163 191.347 33.0422 188.97 30.094C187.091 27.764 186.152 25.0001 186.152 21.8023C186.152 18.2121 187.371 15.2223 189.808 12.8329C192.257 10.4315 195.264 9.3022 198.831 9.44485ZM199.045 10.5861C196.833 10.5861 195.151 11.7154 193.998 13.9741C193.059 15.8286 192.589 18.4915 192.589 21.9628C192.589 26.0878 193.315 29.1371 194.765 31.1104C195.775 32.4894 197.19 33.1789 199.009 33.1789C200.233 33.1789 201.256 32.8817 202.076 32.2873C203.122 31.5265 203.936 30.314 204.519 28.6497C205.101 26.9735 205.393 24.7921 205.393 22.1054C205.393 18.9076 205.095 16.5181 204.501 14.937C203.907 13.3441 203.146 12.2207 202.219 11.5668C201.303 10.913 200.245 10.5861 199.045 10.5861Z" fill="white"/>
<defs>
<linearGradient id="paint0_linear_388_522" x1="22.8247" y1="13.6948" x2="22.8247" y2="40.8382" gradientUnits="userSpaceOnUse">
<stop stop-color="#64F4AB"/>
<stop offset="1" stop-color="#FFA400"/>
</linearGradient>
</defs>
</svg>
