<svg width="31" height="31" viewBox="0 0 31 31" fill="none" xmlns="http://www.w3.org/2000/svg">
<path d="M15.4356 0.371826C7.08146 0.371826 0.307617 7.14567 0.307617 15.4998C0.307617 23.854 7.08146 30.6279 15.4356 30.6279C23.7898 30.6279 30.5637 23.854 30.5637 15.4998C30.5637 7.14567 23.7898 0.371826 15.4356 0.371826ZM22.7059 11.7752C22.716 11.934 22.716 12.0994 22.716 12.2615C22.716 17.2186 18.9407 22.9288 12.042 22.9288C9.91458 22.9288 7.94254 22.3108 6.28116 21.2471C6.58507 21.2809 6.87547 21.2944 7.18614 21.2944C8.94207 21.2944 10.5562 20.7001 11.8427 19.6938C10.1949 19.66 8.81037 18.5795 8.33762 17.0937C8.91505 17.1781 9.43508 17.1781 10.0294 17.0262C9.18089 16.8538 8.41824 16.3929 7.87101 15.722C7.32377 15.051 7.02569 14.2113 7.02743 13.3455V13.2982C7.52382 13.5784 8.108 13.7507 8.7192 13.7743C8.2054 13.4319 7.78402 12.968 7.49245 12.4237C7.20087 11.8794 7.04811 11.2716 7.04769 10.6542C7.04769 9.95515 7.23004 9.31694 7.55758 8.76315C8.49938 9.92252 9.6746 10.8707 11.0069 11.5462C12.3391 12.2216 13.7986 12.6092 15.2904 12.6836C14.7603 10.1341 16.6648 8.07091 18.9542 8.07091C20.0348 8.07091 21.0073 8.5234 21.6928 9.25278C22.5404 9.09407 23.3508 8.77665 24.0735 8.35118C23.7932 9.21901 23.2056 9.95178 22.4256 10.4144C23.182 10.3334 23.9114 10.124 24.5867 9.83021C24.0768 10.5799 23.4386 11.2451 22.7059 11.7752Z" fill="#FFA400"/>
</svg>
