<svg width="32" height="32" viewBox="0 0 32 32" fill="none" xmlns="http://www.w3.org/2000/svg">
<path d="M3.46676 14.12L11.1734 6.4L13.4268 8.66667C13.1068 9.8 13.6268 11.04 14.6668 11.64V19.0267C13.8668 19.48 13.3334 20.3467 13.3334 21.3333C13.3334 22.0406 13.6144 22.7189 14.1145 23.219C14.6146 23.719 15.2928 24 16.0001 24C16.7073 24 17.3856 23.719 17.8857 23.219C18.3858 22.7189 18.6668 22.0406 18.6668 21.3333C18.6668 20.3467 18.1334 19.48 17.3334 19.0267V12.5467L20.0934 15.3333C20.0001 15.5333 20.0001 15.76 20.0001 16C20.0001 16.7072 20.281 17.3855 20.7811 17.8856C21.2812 18.3857 21.9595 18.6667 22.6668 18.6667C23.374 18.6667 24.0523 18.3857 24.5524 17.8856C25.0525 17.3855 25.3334 16.7072 25.3334 16C25.3334 15.2928 25.0525 14.6145 24.5524 14.1144C24.0523 13.6143 23.374 13.3333 22.6668 13.3333C22.4268 13.3333 22.2001 13.3333 22.0001 13.4267L18.5734 10C18.739 9.38245 18.6748 8.7258 18.3928 8.15199C18.1108 7.57818 17.6301 7.12621 17.0401 6.88C16.4668 6.66667 15.8668 6.61333 15.3334 6.76L13.0668 4.50667L14.1201 3.46667C15.1601 2.41333 16.8401 2.41333 17.8801 3.46667L28.5334 14.12C29.5868 15.16 29.5868 16.84 28.5334 17.88L17.8801 28.5333C16.8401 29.5867 15.1601 29.5867 14.1201 28.5333L3.46676 17.88C2.41342 16.84 2.41342 15.16 3.46676 14.12Z" fill="#E64F38"/>
</svg>
