<svg width="43" height="31" viewBox="0 0 43 31" fill="none" xmlns="http://www.w3.org/2000/svg">
<path fill-rule="evenodd" clip-rule="evenodd" d="M20.3572 30.242C20.2036 30.0577 19.9886 29.9349 19.8043 29.812C19.6507 29.7199 19.5893 29.6277 19.62 29.4127C19.9271 27.6004 20.2036 25.7882 20.48 23.9452C20.6643 22.7165 20.8486 21.4878 21.0637 20.1978C21.3401 20.3821 21.6166 20.5664 21.8623 20.7506C21.9237 20.8121 21.893 20.9042 21.893 20.9657C21.8316 21.3957 21.7701 21.8564 21.678 22.2865C21.5244 23.2694 21.3708 24.283 21.2172 25.266C21.0637 26.2489 20.9101 27.2318 20.7565 28.2148C20.7258 28.4605 20.6951 28.7369 20.6336 28.9827C20.7565 29.0134 20.8179 28.9212 20.9101 28.8905C23.2445 27.6619 25.579 26.4639 27.9134 25.2353C27.9749 25.2045 28.0363 25.1738 28.0977 25.1431C28.1592 25.1124 28.2206 25.0817 28.282 25.1431C28.5278 25.2967 28.7735 25.481 29.0499 25.6653C28.9271 25.7267 28.8656 25.7882 28.7735 25.8189C26.0704 27.2318 23.3981 28.6448 20.6951 30.0577C20.6029 30.0885 20.5108 30.1192 20.48 30.2113L20.3572 30.242Z" fill="#58D898" stroke="#64F4AB"/>
<path fill-rule="evenodd" clip-rule="evenodd" d="M12.1558 13.6552C12.0944 14.1467 12.0022 14.5767 11.9408 15.0067C11.7258 16.4197 11.48 17.8019 11.265 19.2149C11.1422 20.0442 10.9886 20.8736 10.8657 21.7029C10.835 21.8565 10.7736 21.9179 10.6507 21.9487C10.405 22.0101 10.1285 22.1022 9.88279 22.1944C9.85208 22.133 9.88279 22.0715 9.88279 22.0101C10.1285 20.4743 10.3743 18.9692 10.62 17.4333C10.8657 15.9589 11.0807 14.4538 11.3265 12.9794C11.3572 12.8566 11.3879 12.7644 11.5415 12.7337C11.7565 12.6723 11.9408 12.6109 12.1558 12.5494C12.2787 12.488 12.3708 12.5187 12.4937 12.6108C13.0159 13.133 13.5381 13.6552 14.0602 14.1774C15.7189 15.8361 17.4083 17.4948 19.067 19.1227C19.0977 19.1535 19.1285 19.2149 19.1899 19.2456C18.8827 19.3685 18.5756 19.4299 18.2991 19.5528C18.207 19.5835 18.1455 19.4913 18.1148 19.4606C17.7155 19.0613 17.3162 18.662 16.8862 18.2627C15.3503 16.7576 13.8452 15.2525 12.3401 13.7474C12.2787 13.7474 12.248 13.7166 12.1558 13.6552Z" fill="#58D898" stroke="#64F4AB"/>
<path fill-rule="evenodd" clip-rule="evenodd" d="M20.1418 18.4162C19.896 18.2012 19.681 17.9862 19.466 17.7711C19.4046 17.7097 19.4353 17.6176 19.466 17.5561C19.6503 17.0032 19.8346 16.4503 20.0496 15.8974C20.7254 13.9623 21.4011 12.0272 22.0769 10.092C22.1076 10.0306 22.1383 9.93844 22.1383 9.877C22.0155 9.84629 21.9233 9.90772 21.8312 9.93844C19.3124 10.7371 16.8244 11.505 14.3056 12.3036C13.9063 12.4265 14.0292 12.4572 13.7527 12.1807C13.5992 12.0272 13.4456 11.8736 13.292 11.72C13.3534 11.6278 13.4763 11.6278 13.5684 11.5971C16.4865 10.6756 19.4046 9.75414 22.2919 8.83264C22.5069 8.77121 22.6298 8.80193 22.7834 8.95551C22.8755 9.07838 23.0291 9.20124 23.152 9.32411C23.2748 9.41626 23.2748 9.53912 23.2441 9.66199C22.9063 10.5835 22.5991 11.505 22.2612 12.4265C21.5854 14.3616 20.9097 16.2967 20.2339 18.2012C20.2339 18.2319 20.2032 18.324 20.1418 18.4162Z" fill="#58D898" stroke="#64F4AB"/>
<path fill-rule="evenodd" clip-rule="evenodd" d="M19.6193 20.3513C19.5578 20.6585 19.5271 20.9349 19.4964 21.2421C19.4964 21.365 19.4043 21.365 19.3121 21.3957C18.6364 21.6107 17.9913 21.8257 17.3463 22.01C15.4418 22.6243 13.5067 23.2079 11.6023 23.8223C11.5408 23.853 11.4487 23.8837 11.3565 23.9144C11.418 24.0066 11.5101 24.068 11.6023 24.0987C13.7524 25.5731 15.9026 27.0782 18.0527 28.5526C18.237 28.6755 18.3599 28.7983 18.2678 29.0441C18.2063 29.2591 18.2063 29.4741 18.1449 29.6891C18.0527 29.6891 17.9913 29.6277 17.9299 29.597C15.4111 27.8769 12.8924 26.126 10.3736 24.4059C10.22 24.283 10.1586 24.1909 10.1893 23.9759C10.22 23.7916 10.2815 23.638 10.2815 23.4537C10.2815 23.3001 10.3736 23.2387 10.4965 23.2079C13.476 22.2557 16.4862 21.3342 19.4657 20.382C19.4964 20.382 19.5578 20.382 19.6193 20.3513Z" fill="#58D898" stroke="#64F4AB"/>
<path fill-rule="evenodd" clip-rule="evenodd" d="M12.8001 1.52222C12.7694 1.82938 12.708 2.13655 12.6773 2.41299C12.6773 2.53586 12.5544 2.53586 12.4622 2.53586C11.9093 2.72016 11.3257 2.87374 10.7728 3.05804C8.74554 3.67237 6.74897 4.2867 4.72169 4.90103C4.66025 4.93175 4.5681 4.93175 4.50667 5.0239C4.59882 5.08533 4.66025 5.14676 4.7524 5.20819C6.90256 6.7133 9.02199 8.24913 11.1721 9.75423C11.3257 9.8771 11.3872 9.96925 11.3564 10.1843C11.295 10.43 11.2643 10.645 11.2336 10.8907C11.1414 10.86 11.08 10.7986 10.9878 10.7679C8.49981 9.01704 6.01178 7.2662 3.52374 5.51536C3.33944 5.39249 3.27801 5.26963 3.33944 5.08533C3.37016 4.90103 3.40088 4.74745 3.43159 4.56315C3.43159 4.44028 3.49303 4.37885 3.64661 4.31742C4.35309 4.1024 5.05957 3.88739 5.76605 3.67237C8.03907 2.99661 10.2814 2.29013 12.5544 1.61437C12.6158 1.55293 12.708 1.55293 12.8001 1.52222Z" fill="#58D898" stroke="#64F4AB"/>
<path fill-rule="evenodd" clip-rule="evenodd" d="M22.0157 7.78834C21.77 7.88049 21.5243 7.94193 21.2786 8.03407C21.125 8.09551 21.0021 8.06479 20.8792 7.94193C20.0499 7.08186 19.1898 6.25252 18.3298 5.39246C17.3161 4.37881 16.3025 3.36517 15.2581 2.35152C15.1967 2.29009 15.166 2.19794 15.0431 2.16723C14.9817 2.47439 14.9202 2.81227 14.8895 3.11944C14.6438 4.56311 14.4288 6.00679 14.183 7.41974C14.0295 8.34124 13.8759 9.23202 13.753 10.1535C13.7223 10.3071 13.6916 10.3685 13.538 10.3992C13.2923 10.4607 13.0158 10.5528 12.7701 10.645C12.7394 10.4607 12.8008 10.3071 12.8315 10.1842C13.1387 8.27981 13.4459 6.37538 13.753 4.47096C13.9066 3.45732 14.0909 2.44367 14.2445 1.43003C14.2752 1.30716 14.3059 1.24573 14.4288 1.21502C14.6438 1.15358 14.8281 1.09215 15.0431 1.03072C15.1967 0.969284 15.2888 1 15.4117 1.12287C16.2411 1.95221 17.0704 2.78156 17.869 3.58018C19.1898 4.90099 20.5414 6.2218 21.8622 7.54261C21.8929 7.60404 21.985 7.66548 22.0157 7.78834Z" fill="#58D898" stroke="#64F4AB"/>
<path fill-rule="evenodd" clip-rule="evenodd" d="M23.1469 20.837C23.0237 20.3973 22.9596 19.9925 22.9283 19.5592C22.7333 17.9445 22.9039 16.386 23.5319 14.8904C24.4957 12.556 26.1564 10.8247 28.4198 9.72048C29.5351 9.18264 30.7316 8.80443 31.9787 8.58372C32.0642 8.68208 32.025 8.8025 32.0186 8.89443C32.0364 9.08042 32.0541 9.26641 32.0719 9.4524C32.094 9.57711 32.0284 9.63411 31.9037 9.65618C31.0899 9.84561 30.2718 10.0963 29.5085 10.4432C27.444 11.3458 25.8682 12.7444 24.8645 14.768C24.1859 16.1062 23.9014 17.5335 23.9802 19.0478C24.0136 19.4504 24.0471 19.853 24.1111 20.2578C24.1332 20.3825 24.1268 20.4744 23.9693 20.525C23.7177 20.5998 23.4334 20.7031 23.1469 20.837Z" fill="#58D898" stroke="#64F4AB"/>
<path fill-rule="evenodd" clip-rule="evenodd" d="M27.4037 23.8135C27.4252 23.5071 27.4138 23.2292 27.4352 22.9228C27.4438 22.8002 27.4787 22.7411 27.6341 22.7211C28.4436 22.593 29.2268 22.4014 29.9594 22.0524C32.6604 20.8556 34.4344 18.8243 35.1588 15.9497C35.4548 14.8004 35.5055 13.6338 35.4031 12.4566C35.4074 12.3953 35.3832 12.3012 35.3875 12.24C35.396 12.1174 35.2842 11.9556 35.3825 11.8701C35.4503 11.7825 35.6035 11.7932 35.7282 11.7711C35.9469 11.7248 36.1351 11.6764 36.356 11.5995C36.4507 12.0064 36.482 12.4397 36.4848 12.8401C36.5474 13.7067 36.518 14.5668 36.3946 15.4511C36.1021 17.4321 35.2731 19.16 33.9075 20.6349C32.4435 22.1953 30.622 23.1456 28.5589 23.5864C28.1805 23.7139 27.8064 23.7801 27.4037 23.8135Z" fill="#58D898" stroke="#64F4AB"/>
<path fill-rule="evenodd" clip-rule="evenodd" d="M36.3918 6.24419C36.4837 6.25062 36.5187 6.19148 36.5821 6.16512C37.835 5.42136 39.1142 4.74103 40.3934 4.06069C40.459 4.0037 40.5531 3.97948 40.6407 4.04719C40.9058 4.21969 41.2015 4.39432 41.4972 4.56896C41.4316 4.62596 41.3354 4.68081 41.272 4.70717C39.6735 5.54992 38.0465 6.3599 36.448 7.20265C36.319 7.28601 36.2206 7.37151 36.1201 7.48765C35.5328 8.40111 34.9127 9.34308 34.3253 10.2565C34.2206 10.434 34.2206 10.434 34.0431 10.3292C33.8657 10.2244 33.7189 10.1218 33.5415 10.017C33.3641 9.9122 33.3641 9.9122 33.4667 9.76542C33.8466 9.17616 34.2266 8.58689 34.6065 7.99763C34.8467 7.64493 35.0562 7.29008 35.2964 6.93738C35.3641 6.84974 35.4034 6.72932 35.4119 6.60675C35.5056 4.82739 35.6277 3.08082 35.752 1.3036C35.7584 1.21168 35.7627 1.1504 35.7691 1.05847C36.0078 1.16754 36.2116 1.33574 36.4503 1.44481C36.7175 1.58666 36.7681 1.74415 36.7466 2.05057C36.6367 3.18217 36.5553 4.34655 36.476 5.48029C36.4589 5.72543 36.4111 5.96842 36.3918 6.24419Z" fill="#58D898" stroke="#64F4AB"/>
<path fill-rule="evenodd" clip-rule="evenodd" d="M29.861 13.7626C29.831 14.1916 29.3285 14.7723 28.8931 14.8342C28.5803 14.9047 28.3109 14.7935 28.1114 14.564C27.9119 14.3345 27.8699 14.0544 27.9811 13.7851C28.1294 13.426 28.3653 13.1345 28.7153 12.9743C29.0017 12.8403 29.2775 12.8596 29.5119 13.03C29.7749 13.2331 29.9131 13.4583 29.861 13.7626Z" fill="#58D898" stroke="#64F4AB"/>
<path fill-rule="evenodd" clip-rule="evenodd" d="M32.9829 15.7975C32.9529 16.2265 32.4504 16.8072 32.0129 16.8998C31.7 16.9703 31.4613 16.8612 31.2312 16.6296C31.0317 16.4001 30.9876 16.1507 31.0988 15.8813C31.2492 15.4916 31.4851 15.2001 31.8657 15.042C32.408 14.772 33.0236 15.2154 32.9829 15.7975Z" fill="#58D898" stroke="#64F4AB"/>
<path fill-rule="evenodd" clip-rule="evenodd" d="M2.60266 6.25244C2.87911 6.40602 3.09412 6.59032 3.37057 6.77462C3.46272 6.83605 3.432 6.9282 3.40129 7.02035C3.30914 7.60397 3.21699 8.18758 3.12484 8.77119C2.78696 10.8599 2.44908 12.9179 2.11119 15.0066C2.11119 15.0681 2.04976 15.1602 2.11119 15.2524C2.20334 15.1909 2.29549 15.1602 2.38764 15.0988C4.69138 13.8394 6.99511 12.58 9.29885 11.3207C9.48315 11.2285 9.60602 11.2285 9.7596 11.3514C9.9439 11.505 10.1282 11.6278 10.3432 11.7814C10.2818 11.8736 10.1896 11.9043 10.1282 11.935C7.45586 13.4094 4.78353 14.8531 2.14191 16.3274C1.95761 16.4196 1.83475 16.4503 1.68116 16.2967C1.5583 16.1739 1.40471 16.0817 1.25113 15.9896C1.12827 15.9281 1.09755 15.836 1.12827 15.7131C1.25113 14.9759 1.374 14.2694 1.46615 13.5322C1.83475 11.1978 2.23406 8.86334 2.60266 6.52889C2.57194 6.43674 2.57194 6.34459 2.60266 6.25244Z" fill="#58D898" stroke="#64F4AB"/>
</svg>
