<svg width="32" height="32" viewBox="0 0 32 32" fill="none" xmlns="http://www.w3.org/2000/svg">
<path fill-rule="evenodd" clip-rule="evenodd" d="M16 0C19.1645 0 22.2579 0.938384 24.8891 2.69649C27.5203 4.45459 29.5711 6.95345 30.7821 9.87706C31.9931 12.8007 32.3099 16.0177 31.6926 19.1214C31.0752 22.2251 29.5513 25.0761 27.3137 27.3137C25.0761 29.5513 22.2251 31.0752 19.1214 31.6926C16.0177 32.3099 12.8007 31.9931 9.87706 30.7821C6.95345 29.5711 4.45459 27.5203 2.69649 24.8891C0.938384 22.2579 0 19.1645 0 16C0 11.7565 1.68571 7.68687 4.68629 4.68629C7.68687 1.68571 11.7565 0 16 0Z" fill="#CC6699"/>
<path d="M26.0366 6.84802C25.3121 4.00688 20.6001 3.0766 16.1406 4.65602C13.3479 5.59448 10.7676 7.07453 8.54751 9.01145C6.09151 11.3086 5.69951 13.3086 5.86065 14.144C6.43208 17.0926 10.4698 19.0194 12.1304 20.4492V20.4572C11.6412 20.6983 8.05722 22.5143 7.21608 24.3657C6.33151 26.3223 7.35665 27.7257 8.03665 27.9143C9.05759 28.1601 10.1299 28.0801 11.103 27.6855C12.0762 27.291 12.9014 26.6017 13.4629 25.7143C13.927 24.9954 14.2173 24.1783 14.311 23.3277C14.4046 22.4771 14.2989 21.6164 14.0024 20.8137C14.8022 20.6105 15.6337 20.5628 16.4515 20.6732C19.2584 21.0012 19.8092 22.7532 19.7041 23.4869C19.6546 23.7481 19.5495 23.9955 19.3959 24.2124C19.2423 24.4294 19.0437 24.6107 18.8138 24.744C18.6172 24.8663 18.5566 24.9074 18.5738 24.9989C18.5978 25.1303 18.6881 25.1257 18.8561 25.0972C19.2779 24.9643 19.6495 24.7068 19.9221 24.3586C20.1947 24.0103 20.3553 23.5877 20.3829 23.1463C20.4504 21.432 18.8035 19.5052 15.8869 19.5543C15.0398 19.5301 14.1946 19.646 13.3852 19.8972C13.3447 19.8509 13.3036 19.8052 13.2618 19.76C11.4584 17.8366 8.12579 16.4755 8.26636 13.8892C8.31779 12.9486 8.64465 10.4732 14.6664 7.46974C19.6035 5.00917 23.5555 5.68688 24.2389 7.18745C25.2149 9.33145 22.1269 13.3143 17.0001 13.8892C16.4334 14.0042 15.8481 13.9902 15.2876 13.8481C14.7271 13.7061 14.2058 13.4396 13.7624 13.0686C13.4926 12.7715 13.4526 12.7589 13.3521 12.8137C13.1886 12.904 13.2926 13.1669 13.3521 13.3223C13.5484 13.6761 13.8134 13.9871 14.1315 14.2372C14.4496 14.4872 14.8145 14.6712 15.2046 14.7783C17.2204 15.2163 19.3229 15.0084 21.2138 14.184C24.3235 12.9852 26.7486 9.64231 26.0366 6.84802ZM12.8207 21.3292C13.0476 22.1117 13.0361 22.9441 12.7875 23.72C12.7608 23.8008 12.7315 23.8808 12.6995 23.96C12.6675 24.0393 12.6328 24.1155 12.5955 24.1886C12.4032 24.5821 12.154 24.9452 11.8561 25.2663C10.9269 26.28 9.62751 26.664 9.07094 26.3406C8.46979 25.992 8.77036 24.5623 9.84808 23.4229C10.6762 22.604 11.6309 21.924 12.6755 21.4092L12.8207 21.3292Z" fill="white"/>
</svg>
