<svg width="32" height="33" viewBox="0 0 32 33" fill="none" xmlns="http://www.w3.org/2000/svg">
<g clip-path="url(#clip0_468_1681)">
<path d="M31.8941 4.74224L16.8621 31.622C16.5517 32.177 15.7543 32.1802 15.4393 31.628L0.109335 4.74474C-0.233915 4.14299 0.28071 3.41399 0.96271 3.53599L16.0108 6.22562C16.1068 6.24277 16.2051 6.2426 16.3011 6.22512L31.0345 3.53974C31.7142 3.41587 32.2312 4.13924 31.8941 4.74224Z" fill="url(#paint0_linear_468_1681)"/>
<path d="M23.179 0.00788852L12.055 2.18764C11.9661 2.20505 11.8855 2.25151 11.8259 2.31971C11.7663 2.3879 11.7311 2.47398 11.7257 2.56439L11.0415 14.1214C11.0377 14.1848 11.0488 14.2482 11.0738 14.3065C11.0988 14.3649 11.1371 14.4166 11.1856 14.4576C11.2341 14.4986 11.2915 14.5277 11.3532 14.5426C11.4149 14.5576 11.4792 14.5579 11.5411 14.5436L14.6382 13.8289C14.928 13.762 15.1899 14.0173 15.1302 14.3086L14.2101 18.8145C14.1482 19.1178 14.4329 19.377 14.729 19.287L16.642 18.7059C16.9385 18.6159 17.2235 18.8759 17.1607 19.1794L15.6985 26.257C15.607 26.6998 16.1959 26.9411 16.4414 26.5616L16.6055 26.3081L25.67 8.21814C25.8219 7.91526 25.56 7.56989 25.2275 7.63414L22.0394 8.24939C21.7399 8.30714 21.485 8.02814 21.5695 7.73514L23.6502 0.522014C23.7349 0.228264 23.479 -0.0508615 23.1791 0.00788852H23.179Z" fill="url(#paint1_linear_468_1681)"/>
</g>
<defs>
<linearGradient id="paint0_linear_468_1681" x1="-0.26496" y1="5.70467" x2="15.9469" y2="27.7218" gradientUnits="userSpaceOnUse">
<stop stop-color="#41D1FF"/>
<stop offset="1" stop-color="#BD34FE"/>
</linearGradient>
<linearGradient id="paint1_linear_468_1681" x1="17.4055" y1="0.599734" x2="20.7406" y2="23.4777" gradientUnits="userSpaceOnUse">
<stop stop-color="#FFEA83"/>
<stop offset="0.08333" stop-color="#FFDD35"/>
<stop offset="1" stop-color="#FFA800"/>
</linearGradient>
<clipPath id="clip0_468_1681">
<rect width="32" height="32.125" fill="white"/>
</clipPath>
</defs>
</svg>
