<svg width="26" height="26" viewBox="0 0 26 26" fill="none" xmlns="http://www.w3.org/2000/svg">
<path d="M3.75 0C2.75544 0 1.80161 0.395088 1.09835 1.09835C0.395088 1.80161 0 2.75544 0 3.75V17.25C0 18.2446 0.395088 19.1984 1.09835 19.9016C1.80161 20.6049 2.75544 21 3.75 21H11.2125C11.3775 20.4585 11.637 19.95 11.9775 19.5H3.75C3.15326 19.5 2.58097 19.2629 2.15901 18.841C1.73705 18.419 1.5 17.8467 1.5 17.25V5.9985H19.5V11.9145L19.653 11.7615C20.052 11.361 20.511 11.0565 21 10.8465V3.75C21 2.75544 20.6049 1.80161 19.9016 1.09835C19.1984 0.395088 18.2446 0 17.25 0H3.75ZM1.4985 3.7485C1.4985 3.15176 1.73555 2.57947 2.15751 2.15751C2.57947 1.73555 3.15176 1.4985 3.7485 1.4985H17.2485C17.8452 1.4985 18.4175 1.73555 18.8395 2.15751C19.2614 2.57947 19.4985 3.15176 19.4985 3.7485V4.4985H1.4985V3.7485ZM9.528 7.7175C9.6686 7.85815 9.74759 8.04888 9.74759 8.24775C9.74759 8.44662 9.6686 8.63735 9.528 8.778L6.309 12L9.528 15.219C9.66462 15.3605 9.74021 15.5499 9.73851 15.7466C9.7368 15.9432 9.65792 16.1313 9.51886 16.2704C9.37981 16.4094 9.1917 16.4883 8.99505 16.49C8.7984 16.4917 8.60895 16.4161 8.4675 16.2795L4.7175 12.5295C4.5769 12.3889 4.49791 12.1981 4.49791 11.9993C4.49791 11.8004 4.5769 11.6096 4.7175 11.469L8.4675 7.719C8.60815 7.5784 8.79888 7.49941 8.99775 7.49941C9.19662 7.49941 9.38735 7.5784 9.528 7.719V7.7175ZM12.219 15.2175C12.0784 15.3583 11.9994 15.5493 11.9996 15.7483C11.9997 15.9473 12.0789 16.1381 12.2197 16.2787C12.3606 16.4194 12.5515 16.4983 12.7505 16.4982C12.9496 16.498 13.1404 16.4188 13.281 16.278L17.031 12.528C17.1716 12.3874 17.2506 12.1966 17.2506 11.9977C17.2506 11.7989 17.1716 11.6081 17.031 11.4675L13.281 7.7175C13.1404 7.57667 12.9496 7.49747 12.7505 7.49733C12.5515 7.49719 12.3606 7.57612 12.2197 7.71675C12.0789 7.85738 11.9997 8.0482 11.9996 8.24722C11.9994 8.44624 12.0784 8.63717 12.219 8.778L15.4395 12L12.219 15.219V15.2175ZM20.7135 12.822L13.4685 20.067C13.0468 20.4892 12.7477 21.018 12.603 21.597L12.0405 23.844C11.985 24.0675 11.9883 24.3015 12.05 24.5233C12.1117 24.7452 12.2297 24.9473 12.3926 25.11C12.5555 25.2728 12.7577 25.3906 12.9796 25.4521C13.2015 25.5136 13.4356 25.5167 13.659 25.461L15.906 24.9C16.4852 24.7551 17.0141 24.4554 17.436 24.033L24.681 16.788C25.2002 16.2605 25.4899 15.5491 25.4869 14.809C25.4839 14.0688 25.1884 13.3598 24.665 12.8366C24.1415 12.3133 23.4324 12.0181 22.6922 12.0154C21.9521 12.0127 21.2408 12.3026 20.7135 12.822Z" fill="#ffffff"/>
</svg>