<svg width="70" height="70" viewBox="0 0 70 70" fill="none" xmlns="http://www.w3.org/2000/svg">
<g clip-path="url(#clip0_1499_4517)">
<path d="M53.5938 0H16.4062C7.34533 0 0 7.34533 0 16.4062V53.5938C0 62.6547 7.34533 70 16.4062 70H53.5938C62.6547 70 70 62.6547 70 53.5938V16.4062C70 7.34533 62.6547 0 53.5938 0Z" fill="#0073AA"/>
<path d="M11.543 34.9984C11.543 44.2829 16.9387 52.3067 24.7629 56.1091L13.5738 25.4524C12.2325 28.456 11.5405 31.7089 11.543 34.9984ZM50.8343 33.8147C50.8343 30.9159 49.7931 28.9084 48.9 27.3457C47.7108 25.4136 46.5963 23.7773 46.5963 21.8452C46.5963 19.6889 48.2317 17.6818 50.5352 17.6818C50.6393 17.6818 50.7378 17.6947 50.8392 17.7004C46.666 13.8772 41.1062 11.5429 34.9993 11.5429C26.8049 11.5429 19.5952 15.7473 15.4012 22.1156C15.9513 22.132 16.47 22.1438 16.9106 22.1438C19.3641 22.1438 23.1619 21.8457 23.1619 21.8457C24.4263 21.7714 24.5756 23.6286 23.3123 23.7781C23.3123 23.7781 22.0416 23.9277 20.6277 24.0018L29.1693 49.4091L34.3025 34.0137L30.6481 24.001C29.385 23.9269 28.1885 23.7773 28.1885 23.7773C26.9244 23.7032 27.0726 21.7705 28.3367 21.8452C28.3367 21.8452 32.2102 22.1427 34.515 22.1427C36.9683 22.1427 40.7663 21.8452 40.7663 21.8452C42.0318 21.7705 42.1803 23.6277 40.9167 23.7773C40.9167 23.7773 39.6433 23.9269 38.2321 24.001L46.709 49.2157L49.0485 41.3976C50.0627 38.153 50.8343 35.8228 50.8343 33.8147Z" fill="white"/>
<path d="M35.4108 37.0502L28.373 57.5006C30.5247 58.1344 32.7562 58.4562 34.9993 58.4563C37.6522 58.4572 40.286 58.0076 42.7884 57.1266C42.7233 57.024 42.6675 56.9158 42.6216 56.8034L35.4108 37.0502ZM55.5812 23.7448C55.6878 24.5442 55.7407 25.3499 55.7392 26.1565C55.7392 28.5368 55.2946 31.2126 53.9556 34.5584L46.7907 55.2738C53.7642 51.2072 58.4547 43.6524 58.4547 34.9989C58.455 30.9206 57.4135 27.0856 55.5812 23.7448Z" fill="white"/>
<path d="M34.9995 7.65625C19.9227 7.65625 7.65625 19.9218 7.65625 34.9984C7.65625 50.0768 19.9227 62.3418 34.9995 62.3418C50.0754 62.3418 62.3438 50.0768 62.3438 34.9984C62.3432 19.9218 50.0754 7.65625 34.9995 7.65625ZM34.9995 61.0887C20.6139 61.0887 8.90996 49.3845 8.90996 34.9984C8.90996 20.6131 20.6136 8.90996 34.9995 8.90996C49.3842 8.90996 61.0873 20.6131 61.0873 34.9984C61.0873 49.3845 49.3842 61.0887 34.9995 61.0887Z" fill="white"/>
</g>
<defs>
<clipPath id="clip0_1499_4517">
<rect width="70" height="70" fill="white"/>
</clipPath>
</defs>
</svg>
