<svg width="35" height="35" viewBox="0 0 35 35" fill="none" xmlns="http://www.w3.org/2000/svg">
<path d="M23.6608 15.9873C21.709 15.9873 21.4389 17.9323 21.4389 17.9323H25.5856C25.5856 17.9323 25.6126 15.9873 23.6608 15.9873V15.9873ZM14.253 17.9323H10.5791V21.3091H14.0707C14.5975 21.2956 15.5835 21.147 15.5835 19.668C15.5835 17.9121 14.253 17.9323 14.253 17.9323V17.9323Z" fill="#FFA400"/>
<path d="M17.7108 2.37183C9.3566 2.37183 2.58276 9.14567 2.58276 17.4998C2.58276 25.854 9.3566 32.6279 17.7108 32.6279C26.065 32.6279 32.8388 25.854 32.8388 17.4998C32.8388 9.14567 26.065 2.37183 17.7108 2.37183ZM20.8985 11.6648H26.1055V13.2181H20.8985V11.6648V11.6648ZM18.2646 19.8231C18.2646 23.6726 14.2529 23.551 14.2529 23.551H7.68847V10.9219H14.2529C16.252 10.9219 17.8256 12.0227 17.8256 14.2851C17.8256 16.5476 15.9008 16.6894 15.9008 16.6894C18.4402 16.6894 18.2646 19.8231 18.2646 19.8231ZM28.0032 19.6137H21.459C21.459 21.9572 23.6809 21.8086 23.6809 21.8086C25.7813 21.8086 25.707 20.4512 25.707 20.4512H27.9289C27.9289 24.0576 23.6067 23.8077 23.6067 23.8077C18.4267 23.8077 18.7576 18.9789 18.7576 18.9789C18.7576 18.9789 18.7508 14.1298 23.6067 14.1298C28.7191 14.1366 28.0032 19.6137 28.0032 19.6137V19.6137Z" fill="#FFA400"/>
<path d="M15.1445 14.4808C15.1445 13.1707 14.253 13.1707 14.253 13.1707H10.5791V15.9869H14.0234C14.6177 15.9869 15.1445 15.791 15.1445 14.4808Z" fill="#FFA400"/>
</svg>
