<svg width="41" height="32" viewBox="0 0 41 32" fill="none" xmlns="http://www.w3.org/2000/svg">
<path d="M8.34349 0C6.05143 0 4.35533 2.00616 4.43128 4.18179C4.50425 6.27189 4.40947 8.97915 3.72799 11.1868C3.04447 13.4009 1.88832 14.8034 0 14.9835V17.0165C1.88832 17.1966 3.04447 18.5991 3.72799 20.8134C4.40947 23.021 4.50425 25.7279 4.43128 27.8182C4.35533 29.9935 6.05143 32 8.3438 32H31.8297C34.122 32 35.8176 29.9938 35.7416 27.8182C35.6688 25.7281 35.7635 23.021 36.4449 20.8134C37.1289 18.5993 38.2819 17.1965 40.1703 17.0165V14.9835C38.2819 14.8034 37.1289 13.4009 36.4451 11.1868C35.7635 8.97946 35.6688 6.27205 35.7416 4.18179C35.8176 2.00647 34.122 0 31.8297 0H8.34349ZM27.2342 19.698C27.2342 22.6938 24.9997 24.5106 21.2915 24.5106H14.9788C14.7983 24.5106 14.6251 24.4388 14.4975 24.3111C14.3698 24.1834 14.2981 24.0103 14.2981 23.8297V8.17025C14.2981 8.08083 14.3157 7.99228 14.3499 7.90965C14.3841 7.82703 14.4342 7.75195 14.4975 7.68871C14.5607 7.62548 14.6358 7.57531 14.7184 7.54108C14.801 7.50686 14.8895 7.48924 14.979 7.48924H21.2554C24.3474 7.48924 26.3766 9.16431 26.3766 11.7358C26.3766 13.5408 25.0115 15.1567 23.2724 15.4397V15.534C25.6401 15.7937 27.2342 17.4333 27.2342 19.698ZM20.6029 9.64761H17.0038V14.7317H20.0354C22.3788 14.7317 23.6711 13.788 23.6711 12.1011C23.6711 10.5205 22.5597 9.64761 20.6029 9.64761ZM17.0038 16.749V22.3516H20.7355C23.1753 22.3516 24.4679 21.3726 24.4679 19.5326C24.4679 17.6923 23.1393 16.7486 20.5786 16.7486L17.0038 16.749Z" fill="#7E13F8"/>
</svg>
