<svg width="28" height="32" viewBox="0 0 28 32" fill="none" xmlns="http://www.w3.org/2000/svg">
<path d="M27.288 7.37864L14.7832 0.18123C14.5761 0.0517799 14.2913 0 13.9806 0C13.6699 0 13.3851 0.0776699 13.178 0.18123L0.750809 7.40453C0.31068 7.66343 0 8.31068 0 8.80259V23.2233C0 23.5081 0.0517799 23.8447 0.2589 24.1294L27.9094 8.07767C27.754 7.76699 27.521 7.53398 27.288 7.37864Z" fill="#9B4F96"/>
<path d="M0.181152 24.1036C0.310602 24.3107 0.491832 24.4919 0.673062 24.5955L13.152 31.8188C13.3591 31.9482 13.6439 32 13.9546 32C14.2653 32 14.5501 31.9223 14.7572 31.8188L27.1844 24.5955C27.6245 24.3366 27.9352 23.6893 27.9352 23.1974V8.77671C27.9352 8.5437 27.9093 8.2848 27.7799 8.05179L0.181152 24.1036Z" fill="#68217A"/>
<path d="M19.4953 19.1327C18.4079 21.0485 16.3367 22.343 13.9807 22.343C10.4855 22.343 7.63765 19.4951 7.63765 16C7.63765 12.5049 10.4855 9.65696 13.9807 9.65696C16.3367 9.65696 18.4079 10.9515 19.4953 12.8932L22.8609 10.9515C21.1004 7.87056 17.7865 5.77347 13.9807 5.77347C8.33668 5.77347 3.75415 10.356 3.75415 16C3.75415 21.644 8.33668 26.2265 13.9807 26.2265C17.7606 26.2265 21.0745 24.1553 22.8351 21.1003L19.4953 19.1327ZM22.5244 16.5696L22.7574 15.4563H21.67V14.2395H22.9904L23.3011 12.6343H24.5697L24.259 14.2136H25.2428L25.5535 12.6343H26.7962L26.4855 14.2136H27.1069V15.4304H26.2525L26.0195 16.5437H27.1069V17.7605H25.7865L25.4758 19.3139H24.2072L24.5179 17.7605H23.5341L23.2234 19.3139H21.9807L22.2914 17.7605H21.67V16.5437H22.5244V16.5696ZM23.7671 16.5696H24.7509L24.9839 15.4563H24.0001L23.7671 16.5696Z" fill="white"/>
</svg>
