<svg width="32" height="32" viewBox="0 0 32 32" fill="none" xmlns="http://www.w3.org/2000/svg">
<g clip-path="url(#clip0_468_1675)">
<path d="M28.5 0H3.5C1.567 0 0 1.567 0 3.5V28.5C0 30.433 1.567 32 3.5 32H28.5C30.433 32 32 30.433 32 28.5V3.5C32 1.567 30.433 0 28.5 0Z" fill="#092E20"/>
<path d="M23.2972 11.7747V20.053C23.2972 22.9055 23.0884 24.2735 22.4624 25.4561C21.8826 26.5926 21.1173 27.3114 19.5406 28.0999L16.2243 26.523C17.8013 25.781 18.5666 25.1317 19.0534 24.1342C19.5637 23.1141 19.7262 21.9314 19.7262 18.8241V11.7747H23.2972ZM17.6161 6.25974V22.7896C15.7842 23.1374 14.4392 23.2765 12.9783 23.2765C8.61869 23.2765 6.34619 21.3056 6.34619 17.5256C6.34619 13.8849 8.75794 11.5197 12.4912 11.5197C13.0709 11.5197 13.5116 11.566 14.0449 11.7051V6.25999H17.6162L17.6161 6.25974ZM12.8392 14.395C11.0304 14.395 9.98682 15.5081 9.98682 17.4559C9.98682 19.3576 10.9841 20.401 12.8161 20.401C13.2101 20.401 13.5348 20.3779 14.0449 20.3085V14.5804C13.6276 14.4414 13.2798 14.395 12.8392 14.395ZM23.2972 6.27874V9.94274H19.7262V6.27886H23.2972V6.27874Z" fill="#FFFFFD"/>
</g>
<defs>
<clipPath id="clip0_468_1675">
<rect width="32" height="32" fill="white"/>
</clipPath>
</defs>
</svg>
