<svg width="32" height="32" viewBox="0 0 32 32" fill="none" xmlns="http://www.w3.org/2000/svg">
<circle cx="16" cy="16" r="16" fill="#623697"/>
<path d="M3.58452 18.0653C3.38305 18.0653 3.21017 17.9932 3.06587 17.8489C2.92158 17.7046 2.84943 17.5317 2.84943 17.3303C2.84943 17.1288 2.92158 16.9559 3.06587 16.8116C3.21017 16.6673 3.38305 16.5952 3.58452 16.5952C3.78598 16.5952 3.95887 16.6673 4.10316 16.8116C4.24746 16.9559 4.3196 17.1288 4.3196 17.3303C4.3196 17.4637 4.28557 17.5862 4.21751 17.6978C4.15217 17.8094 4.06368 17.8993 3.95206 17.9673C3.84316 18.0327 3.72064 18.0653 3.58452 18.0653ZM12.8119 9.63636V18H11.8318L7.27424 11.4332H7.19256V18H6.17978V9.63636H7.15989L11.7338 16.2195H11.8154V9.63636H12.8119ZM14.8385 18V9.63636H19.8861V10.5348H15.8513V13.3608H19.6247V14.2592H15.8513V17.1016H19.9514V18H14.8385ZM21.2541 10.5348V9.63636H27.5269V10.5348H24.8969V18H23.8841V10.5348H21.2541Z" fill="white"/>
<path d="M13.3665 22.5H12.9261C12.9001 22.3733 12.8545 22.2621 12.7894 22.1662C12.7255 22.0703 12.6474 21.9898 12.555 21.9247C12.4639 21.8584 12.3627 21.8087 12.2514 21.7756C12.1402 21.7424 12.0241 21.7259 11.9034 21.7259C11.6832 21.7259 11.4838 21.7815 11.305 21.8928C11.1275 22.004 10.986 22.168 10.8807 22.3846C10.7765 22.6012 10.7244 22.867 10.7244 23.1818C10.7244 23.4967 10.7765 23.7624 10.8807 23.979C10.986 24.1957 11.1275 24.3596 11.305 24.4709C11.4838 24.5821 11.6832 24.6378 11.9034 24.6378C12.0241 24.6378 12.1402 24.6212 12.2514 24.5881C12.3627 24.5549 12.4639 24.5058 12.555 24.4407C12.6474 24.3744 12.7255 24.2933 12.7894 24.1974C12.8545 24.1004 12.9001 23.9891 12.9261 23.8636H13.3665C13.3333 24.0495 13.273 24.2158 13.1854 24.3626C13.0978 24.5094 12.9889 24.6342 12.8587 24.7372C12.7285 24.839 12.5823 24.9165 12.4201 24.9698C12.2591 25.0231 12.0869 25.0497 11.9034 25.0497C11.5933 25.0497 11.3175 24.974 11.076 24.8224C10.8345 24.6709 10.6445 24.4555 10.506 24.1761C10.3675 23.8968 10.2983 23.5653 10.2983 23.1818C10.2983 22.7983 10.3675 22.4669 10.506 22.1875C10.6445 21.9081 10.8345 21.6927 11.076 21.5412C11.3175 21.3897 11.5933 21.3139 11.9034 21.3139C12.0869 21.3139 12.2591 21.3406 12.4201 21.3938C12.5823 21.4471 12.7285 21.5252 12.8587 21.6282C12.9889 21.73 13.0978 21.8543 13.1854 22.0011C13.273 22.1467 13.3333 22.313 13.3665 22.5ZM15.1292 25.0568C14.883 25.0568 14.6669 24.9982 14.4811 24.881C14.2964 24.7638 14.152 24.5999 14.0479 24.3892C13.9449 24.1785 13.8934 23.9323 13.8934 23.6506C13.8934 23.3665 13.9449 23.1185 14.0479 22.9066C14.152 22.6947 14.2964 22.5302 14.4811 22.413C14.6669 22.2958 14.883 22.2372 15.1292 22.2372C15.3754 22.2372 15.5908 22.2958 15.7755 22.413C15.9613 22.5302 16.1057 22.6947 16.2087 22.9066C16.3129 23.1185 16.365 23.3665 16.365 23.6506C16.365 23.9323 16.3129 24.1785 16.2087 24.3892C16.1057 24.5999 15.9613 24.7638 15.7755 24.881C15.5908 24.9982 15.3754 25.0568 15.1292 25.0568ZM15.1292 24.6804C15.3162 24.6804 15.4701 24.6325 15.5908 24.5366C15.7116 24.4407 15.8009 24.3146 15.8589 24.1584C15.9169 24.0021 15.9459 23.8329 15.9459 23.6506C15.9459 23.4683 15.9169 23.2984 15.8589 23.141C15.8009 22.9835 15.7116 22.8563 15.5908 22.7592C15.4701 22.6622 15.3162 22.6136 15.1292 22.6136C14.9421 22.6136 14.7883 22.6622 14.6675 22.7592C14.5468 22.8563 14.4574 22.9835 14.3994 23.141C14.3414 23.2984 14.3124 23.4683 14.3124 23.6506C14.3124 23.8329 14.3414 24.0021 14.3994 24.1584C14.4574 24.3146 14.5468 24.4407 14.6675 24.5366C14.7883 24.6325 14.9421 24.6804 15.1292 24.6804ZM17.0046 25V22.2727H17.4094V22.6847H17.4379C17.4876 22.5497 17.5775 22.4402 17.7077 22.3562C17.8379 22.2721 17.9847 22.2301 18.1481 22.2301C18.1789 22.2301 18.2173 22.2307 18.2635 22.2319C18.3097 22.2331 18.3446 22.2348 18.3683 22.2372V22.6634C18.354 22.6598 18.3215 22.6545 18.2706 22.6474C18.2209 22.6391 18.1682 22.6349 18.1126 22.6349C17.98 22.6349 17.8616 22.6628 17.7575 22.7184C17.6545 22.7728 17.5728 22.8486 17.5124 22.9457C17.4532 23.0415 17.4237 23.151 17.4237 23.2741V25H17.0046ZM19.9254 25.0568C19.6626 25.0568 19.436 24.9988 19.2454 24.8828C19.056 24.7656 18.9098 24.6023 18.8068 24.3928C18.705 24.1821 18.6541 23.937 18.6541 23.6577C18.6541 23.3783 18.705 23.1321 18.8068 22.919C18.9098 22.7048 19.053 22.5379 19.2365 22.4183C19.4212 22.2976 19.6366 22.2372 19.8828 22.2372C20.0249 22.2372 20.1651 22.2609 20.3036 22.3082C20.4421 22.3556 20.5682 22.4325 20.6818 22.5391C20.7955 22.6444 20.886 22.7841 20.9535 22.9581C21.021 23.1321 21.0547 23.3464 21.0547 23.6009V23.7784H18.9524V23.4162H20.6286C20.6286 23.2623 20.5978 23.125 20.5362 23.0043C20.4759 22.8835 20.3894 22.7882 20.277 22.7184C20.1657 22.6486 20.0343 22.6136 19.8828 22.6136C19.7159 22.6136 19.5715 22.6551 19.4496 22.7379C19.3288 22.8196 19.2359 22.9261 19.1708 23.0575C19.1057 23.1889 19.0732 23.3298 19.0732 23.4801V23.7216C19.0732 23.9276 19.1087 24.1022 19.1797 24.2454C19.2519 24.3874 19.3519 24.4957 19.4798 24.5703C19.6076 24.6437 19.7562 24.6804 19.9254 24.6804C20.0355 24.6804 20.1349 24.665 20.2237 24.6342C20.3137 24.6023 20.3912 24.5549 20.4563 24.4922C20.5214 24.4283 20.5717 24.349 20.6072 24.2543L21.0121 24.3679C20.9695 24.5052 20.8978 24.6259 20.7972 24.7301C20.6966 24.8331 20.5723 24.9136 20.4244 24.9716C20.2764 25.0284 20.1101 25.0568 19.9254 25.0568Z" fill="white"/>
</svg>
