<svg width="50" height="45" viewBox="0 0 50 45" fill="none" xmlns="http://www.w3.org/2000/svg">
<path d="M40.125 44.5833C37.6729 44.5833 35.5738 43.7102 33.8276 41.9641C32.0814 40.2179 31.2083 38.1188 31.2083 35.6667V25.6354C31.2083 24.075 31.7471 22.7561 32.8245 21.6786C33.9019 20.6012 35.2208 20.0625 36.7813 20.0625C38.3417 20.0625 39.6606 20.6012 40.738 21.6786C41.8155 22.7561 42.3542 24.075 42.3542 25.6354V35.6667H37.8958V25.6354C37.8958 25.3382 37.7844 25.0781 37.5615 24.8552C37.3385 24.6323 37.0785 24.5208 36.7813 24.5208C36.484 24.5208 36.224 24.6323 36.001 24.8552C35.7781 25.0781 35.6667 25.3382 35.6667 25.6354V35.6667C35.6667 36.8927 36.1028 37.9426 36.9752 38.8165C37.849 39.6888 38.899 40.125 40.125 40.125C41.351 40.125 42.401 39.6888 43.2748 38.8165C44.1472 37.9426 44.5833 36.8927 44.5833 35.6667V26.75H49.0417V35.6667C49.0417 38.1188 48.1686 40.2179 46.4224 41.9641C44.6762 43.7102 42.5771 44.5833 40.125 44.5833ZM4.45833 35.6667C3.23229 35.6667 2.1831 35.2305 1.31075 34.3581C0.436917 33.4843 0 32.4344 0 31.2083V4.45833C0 3.23229 0.436917 2.18235 1.31075 1.30852C2.1831 0.436173 3.23229 0 4.45833 0H40.125C41.351 0 42.401 0.436173 43.2748 1.30852C44.1472 2.18235 44.5833 3.23229 44.5833 4.45833V17.8333H36.7813C34.6264 17.8333 32.7873 18.595 31.2641 20.1182C29.7408 21.6415 28.9792 23.4806 28.9792 25.6354V35.6667H4.45833ZM22.2917 20.0625L40.125 8.91667V4.45833L22.2917 15.6042L4.45833 4.45833V8.91667L22.2917 20.0625Z" fill="url(#paint0_linear_404_908)"/>
<defs>
<linearGradient id="paint0_linear_404_908" x1="24.5208" y1="0" x2="24.5208" y2="44.5833" gradientUnits="userSpaceOnUse">
<stop stop-color="#58D898"/>
<stop offset="1" stop-color="#327A56" stop-opacity="0.3"/>
</linearGradient>
</defs>
</svg>
