<svg width="19" height="26" viewBox="0 0 19 26" fill="none" xmlns="http://www.w3.org/2000/svg">
<path d="M15.8668 9.01562C16.708 8.40553 17.3346 7.54483 17.6567 6.55683C17.9788 5.56882 17.9799 4.50422 17.6599 3.51554C17.3399 2.52685 16.7151 1.66483 15.8752 1.05297C15.0352 0.441105 14.0231 0.1108 12.984 0.109375H5.0152C3.97602 0.1108 2.96395 0.441105 2.12399 1.05297C1.28404 1.66483 0.659295 2.52685 0.339274 3.51554C0.0192538 4.50422 0.0203763 5.56882 0.342482 6.55683C0.664587 7.54483 1.29114 8.40553 2.13239 9.01562C1.50081 9.47049 0.986414 10.069 0.631619 10.7617C0.276824 11.4545 0.0917969 12.2217 0.0917969 13C0.0917969 13.7783 0.276824 14.5455 0.631619 15.2383C0.986414 15.931 1.50081 16.5295 2.13239 16.9844C1.44923 17.4781 0.904295 18.1389 0.549802 18.9036C0.19531 19.6683 0.043137 20.5112 0.107865 21.3516C0.172593 22.192 0.452053 23.0017 0.919468 23.7031C1.38688 24.4045 2.02659 24.9741 2.77729 25.3573C3.528 25.7406 4.36454 25.9246 5.20678 25.8918C6.04901 25.859 6.8687 25.6104 7.58732 25.17C8.30594 24.7295 8.8994 24.1118 9.31084 23.3762C9.72228 22.6406 9.93792 21.8116 9.93708 20.9688V16.8555C10.448 17.2865 11.0413 17.609 11.6809 17.8032C12.3205 17.9975 12.9929 18.0594 13.6572 17.9852C14.3215 17.911 14.9638 17.7023 15.5448 17.3718C16.1258 17.0413 16.6333 16.5959 17.0366 16.0628C17.4398 15.5297 17.7302 14.92 17.8901 14.271C18.05 13.622 18.076 12.9472 17.9665 12.2878C17.857 11.6283 17.6144 10.9981 17.2534 10.4356C16.8924 9.87301 16.4206 9.38987 15.8668 9.01562ZM16.0308 5.03125C16.0277 5.83838 15.7057 6.61157 15.135 7.18231C14.5643 7.75304 13.7911 8.07504 12.984 8.07812H9.93708V1.98438H12.984C13.7911 1.98746 14.5643 2.30946 15.135 2.88019C15.7057 3.45093 16.0277 4.22412 16.0308 5.03125ZM1.96833 5.03125C1.97141 4.22412 2.29342 3.45093 2.86415 2.88019C3.43488 2.30946 4.20807 1.98746 5.0152 1.98438H8.06208V8.07812H5.0152C4.20807 8.07504 3.43488 7.75304 2.86415 7.18231C2.29342 6.61157 1.97141 5.83838 1.96833 5.03125ZM1.96833 13C1.97141 12.1929 2.29342 11.4197 2.86415 10.8489C3.43488 10.2782 4.20807 9.95621 5.0152 9.95312H8.06208V16.0469H5.0152C4.20807 16.0438 3.43488 15.7218 2.86415 15.1511C2.29342 14.5803 1.97141 13.8071 1.96833 13ZM5.0152 24.0156C4.20712 24.0156 3.43214 23.6946 2.86074 23.1232C2.28934 22.5518 1.96833 21.7768 1.96833 20.9688C1.96833 20.1607 2.28934 19.3857 2.86074 18.8143C3.43214 18.2429 4.20712 17.9219 5.0152 17.9219H8.06208V20.9688C8.05899 21.7759 7.73699 22.5491 7.16626 23.1198C6.59553 23.6905 5.82233 24.0125 5.0152 24.0156ZM12.984 16.0469C12.1759 16.0469 11.4009 15.7259 10.8295 15.1545C10.2581 14.5831 9.93708 13.8081 9.93708 13C9.93708 12.1919 10.2581 11.4169 10.8295 10.8455C11.4009 10.2741 12.1759 9.95312 12.984 9.95312C13.792 9.95312 14.567 10.2741 15.1384 10.8455C15.7098 11.4169 16.0308 12.1919 16.0308 13C16.0308 13.8081 15.7098 14.5831 15.1384 15.1545C14.567 15.7259 13.792 16.0469 12.984 16.0469Z" fill="#58D898"/>
</svg>
