<svg width="71" height="70" viewBox="0 0 71 70" fill="none" xmlns="http://www.w3.org/2000/svg">
<g clip-path="url(#clip0_1492_4506)">
<path d="M54.0938 0H16.9062C7.84533 0 0.5 7.34533 0.5 16.4062V53.5938C0.5 62.6547 7.84533 70 16.9062 70H54.0938C63.1547 70 70.5 62.6547 70.5 53.5938V16.4062C70.5 7.34533 63.1547 0 54.0938 0Z" fill="url(#paint0_radial_1492_4506)"/>
<path d="M54.0938 0H16.9062C7.84533 0 0.5 7.34533 0.5 16.4062V53.5938C0.5 62.6547 7.84533 70 16.9062 70H54.0938C63.1547 70 70.5 62.6547 70.5 53.5938V16.4062C70.5 7.34533 63.1547 0 54.0938 0Z" fill="url(#paint1_radial_1492_4506)"/>
<path d="M35.5025 7.65625C28.0764 7.65625 27.1443 7.68879 24.2278 7.82141C21.3168 7.95484 19.3297 8.41559 17.5912 9.0918C15.7925 9.79016 14.267 10.7245 12.7473 12.2448C11.2261 13.7648 10.2918 15.2904 9.59125 17.0882C8.91313 18.8273 8.45184 20.8152 8.32086 23.7248C8.19043 26.6416 8.15625 27.574 8.15625 35.0003C8.15625 42.4266 8.18906 43.3557 8.32141 46.2722C8.45539 49.1832 8.91613 51.1703 9.5918 52.9088C10.2907 54.7075 11.225 56.233 12.7454 57.7527C14.2648 59.2739 15.7904 60.2104 17.5877 60.9087C19.3275 61.585 21.3149 62.0457 24.2254 62.1791C27.1421 62.3118 28.0734 62.3443 35.4992 62.3443C42.926 62.3443 43.8552 62.3118 46.7716 62.1791C49.6827 62.0457 51.6719 61.585 53.4118 60.9087C55.2096 60.2104 56.733 59.2739 58.2522 57.7527C59.7733 56.233 60.7074 54.7075 61.4082 52.9096C62.0803 51.1703 62.5419 49.1827 62.6786 46.2727C62.8096 43.3562 62.8438 42.4266 62.8438 35.0003C62.8438 27.574 62.8096 26.6421 62.6786 23.7254C62.5419 20.8143 62.0803 18.8275 61.4082 17.089C60.7074 15.2904 59.7733 13.7648 58.2522 12.2448C56.7313 10.7239 55.2102 9.78961 53.4102 9.09207C51.667 8.41559 49.6788 7.95457 46.7678 7.82141C43.8511 7.68879 42.9225 7.65625 35.494 7.65625H35.5025ZM33.0495 12.5839C33.7776 12.5828 34.59 12.5839 35.5025 12.5839C42.8035 12.5839 43.6687 12.6101 46.5518 12.7411C49.2178 12.863 50.6648 13.3085 51.6287 13.6828C52.9048 14.1783 53.8146 14.7708 54.7711 15.7281C55.7281 16.6852 56.3204 17.5965 56.8172 18.8727C57.1915 19.8352 57.6375 21.2822 57.7589 23.9482C57.8899 26.8308 57.9183 27.6965 57.9183 34.994C57.9183 42.2915 57.8899 43.1575 57.7589 46.0398C57.637 48.7058 57.1915 50.1528 56.8172 51.1156C56.3217 52.3917 55.7281 53.3004 54.7711 54.2568C53.814 55.2139 52.9054 55.8061 51.6287 56.3019C50.6659 56.6779 49.2178 57.1222 46.5518 57.2441C43.6692 57.3751 42.8035 57.4036 35.5025 57.4036C28.2011 57.4036 27.3357 57.3751 24.4534 57.2441C21.7874 57.1211 20.3404 56.6757 19.3757 56.3013C18.0998 55.8056 17.1882 55.2133 16.2311 54.2563C15.2741 53.2993 14.6818 52.3901 14.185 51.1134C13.8107 50.1506 13.3647 48.7036 13.2433 46.0376C13.1123 43.155 13.0861 42.2893 13.0861 34.9871C13.0861 27.6853 13.1123 26.8239 13.2433 23.9414C13.3652 21.2754 13.8107 19.8283 14.185 18.8645C14.6807 17.5883 15.2741 16.677 16.2314 15.7199C17.1884 14.7629 18.0998 14.1704 19.3759 13.6738C20.3398 13.2978 21.7874 12.8535 24.4534 12.731C26.9759 12.617 27.9534 12.5828 33.0495 12.577V12.5839ZM50.0986 17.124C48.287 17.124 46.8173 18.5924 46.8173 20.4042C46.8173 22.2157 48.287 23.6854 50.0986 23.6854C51.9101 23.6854 53.3798 22.2157 53.3798 20.4042C53.3798 18.5927 51.9101 17.1229 50.0986 17.1229V17.124ZM35.5025 20.9579C27.7478 20.9579 21.4604 27.2453 21.4604 35.0003C21.4604 42.7552 27.7478 49.0396 35.5025 49.0396C43.2574 49.0396 49.5427 42.7552 49.5427 35.0003C49.5427 27.2456 43.2569 20.9579 35.5019 20.9579H35.5025ZM35.5025 25.8855C40.5362 25.8855 44.6172 29.966 44.6172 35.0003C44.6172 40.034 40.5362 44.115 35.5025 44.115C30.4685 44.115 26.388 40.034 26.388 35.0003C26.388 29.966 30.4685 25.8855 35.5025 25.8855Z" fill="white"/>
</g>
<defs>
<radialGradient id="paint0_radial_1492_4506" cx="0" cy="0" r="1" gradientUnits="userSpaceOnUse" gradientTransform="translate(19.0937 75.3914) rotate(-90) scale(69.3752 64.5244)">
<stop stop-color="#FFDD55"/>
<stop offset="0.1" stop-color="#FFDD55"/>
<stop offset="0.5" stop-color="#FF543E"/>
<stop offset="1" stop-color="#C837AB"/>
</radialGradient>
<radialGradient id="paint1_radial_1492_4506" cx="0" cy="0" r="1" gradientUnits="userSpaceOnUse" gradientTransform="translate(-11.2253 5.04246) rotate(78.681) scale(31.0111 127.829)">
<stop stop-color="#3771C8"/>
<stop offset="0.128" stop-color="#3771C8"/>
<stop offset="1" stop-color="#6600FF" stop-opacity="0"/>
</radialGradient>
<clipPath id="clip0_1492_4506">
<rect width="70" height="70" fill="white" transform="translate(0.5)"/>
</clipPath>
</defs>
</svg>
