<svg width="32" height="32" viewBox="0 0 32 32" fill="none" xmlns="http://www.w3.org/2000/svg">
<g clip-path="url(#clip0_468_1670)">
<path d="M0 0H32V32H0V0Z" fill="#F7DF1E"/>
<path d="M8.41394 26.7415L10.8627 25.2595C11.3352 26.0971 11.7649 26.8059 12.7958 26.8059C13.7839 26.8059 14.4071 26.4194 14.4071 24.9159V14.6911H17.4142V24.9584C17.4142 28.073 15.5884 29.4908 12.9247 29.4908C10.5191 29.4908 9.12269 28.2449 8.41382 26.7413M19.0476 26.4193L21.4961 25.0016C22.1407 26.0543 22.9784 26.8275 24.4604 26.8275C25.7066 26.8275 26.5011 26.2045 26.5011 25.3453C26.5011 24.3143 25.6848 23.949 24.3101 23.3478L23.5584 23.0253C21.3888 22.1019 19.9497 20.9419 19.9497 18.4931C19.9497 16.2376 21.6681 14.5191 24.3532 14.5191C26.2649 14.5191 27.6397 15.1851 28.6277 16.925L26.2862 18.4288C25.7706 17.5051 25.2123 17.14 24.3531 17.14C23.4723 17.14 22.9138 17.6985 22.9138 18.4288C22.9138 19.3309 23.4723 19.6963 24.7611 20.2548L25.5128 20.5769C28.0691 21.6725 29.5082 22.7894 29.5082 25.3024C29.5082 28.0091 27.3817 29.4911 24.5248 29.4911C21.7324 29.4911 19.9281 28.1594 19.0474 26.4194" fill="black"/>
</g>
<defs>
<clipPath id="clip0_468_1670">
<rect width="32" height="32" fill="white"/>
</clipPath>
</defs>
</svg>
