<svg width="351" height="361" viewBox="0 0 351 361" fill="none" xmlns="http://www.w3.org/2000/svg">
<g filter="url(#filter0_d_415_1007)">
<path d="M179.083 352.9C271.315 352.9 346.085 309.732 346.085 256.482C346.085 203.231 271.315 160.063 179.083 160.063C86.8498 160.063 12.0803 203.231 12.0803 256.482C12.0803 309.732 86.8498 352.9 179.083 352.9Z" fill="#F5F5F5"/>
<path d="M152.516 290.253C174.166 290.253 191.717 280.12 191.717 267.619C191.717 255.119 174.166 244.986 152.516 244.986C130.866 244.986 113.315 255.119 113.315 267.619C113.315 280.12 130.866 290.253 152.516 290.253Z" fill="#E0E0E0"/>
<path d="M218.976 311.271C245.19 311.271 266.441 299.002 266.441 283.868C266.441 268.734 245.19 256.466 218.976 256.466C192.762 256.466 171.511 268.734 171.511 283.868C171.511 299.002 192.762 311.271 218.976 311.271Z" fill="#E0E0E0"/>
<path d="M165.97 258.958C165.97 256.967 164.665 254.977 162.037 253.472C156.791 250.439 148.28 250.439 143.034 253.472C140.407 254.985 139.093 256.975 139.093 258.958V265.096C139.093 267.086 140.407 269.076 143.034 270.589C148.28 273.614 156.791 273.614 162.037 270.589C164.665 269.068 165.97 267.086 165.97 265.096V258.958Z" fill="#263238"/>
<path d="M162.069 259.61C167.316 262.644 167.316 267.572 162.069 270.589C156.823 273.606 148.312 273.614 143.066 270.589C137.82 267.564 137.812 262.628 143.066 259.61C148.32 256.593 156.823 256.585 162.069 259.61Z" fill="#37474F"/>
<path d="M166.002 258.958H139.125V265.096H166.002V258.958Z" fill="#37474F"/>
<path d="M162.069 253.496C167.316 256.521 167.316 261.457 162.069 264.467C156.823 267.476 148.312 267.5 143.066 264.467C137.82 261.434 137.812 256.506 143.066 253.496C148.32 250.487 156.823 250.439 162.069 253.496Z" fill="#455A64"/>
<path d="M157.038 254.866C159.514 256.291 159.514 258.607 157.038 260.032C155.651 260.735 154.118 261.102 152.564 261.102C151.009 261.102 149.476 260.735 148.09 260.032C145.622 258.607 145.622 256.291 148.09 254.866C149.476 254.163 151.009 253.796 152.564 253.796C154.118 253.796 155.651 254.163 157.038 254.866Z" fill="#263238"/>
<path d="M158.893 141.57H146.234V257.453H158.893V141.57Z" fill="#263238"/>
<path d="M204.256 88.0543V87.9667C204.136 87.306 203.993 86.6372 203.826 85.9685C203.848 86.0391 203.867 86.1109 203.882 86.1834C203.778 85.7296 203.659 85.2759 203.531 84.8221C203.579 84.9893 203.619 85.1564 203.659 85.3236C203.531 84.8221 203.388 84.3285 203.237 83.8269C203.308 84.0419 203.38 84.2648 203.436 84.4797C203.356 84.1931 203.269 83.9065 203.181 83.6199L203.038 83.1661V83.1024V83.1502C201.968 79.9035 200.559 76.7787 198.834 73.8276C198.778 73.7241 198.723 73.6206 198.659 73.5171C194.32 66.1371 188.031 59.394 181.009 55.2064L180.667 54.9994C178.653 53.8299 176.517 52.8848 174.298 52.1811C172.453 51.5976 170.532 51.2891 168.597 51.2656H167.929H167.523C167.188 51.2656 166.862 51.3293 166.543 51.377H166.249L165.708 51.4805C165.477 51.5283 165.246 51.584 165.023 51.6477L164.402 51.8308C164.402 51.8308 164.402 51.8308 164.362 51.8308L163.741 52.0537C163.534 52.1413 163.327 52.2289 163.136 52.3244L161.767 53.1205L92.8147 92.9266H92.759C89.0252 95.0204 86.7642 99.2955 86.7642 105.37V142.875L60.8186 157.205C58.2482 158.622 56.1003 160.697 54.5948 163.216C53.0892 165.736 52.2801 168.61 52.2501 171.545C52.2202 174.48 52.9705 177.37 54.4242 179.92C55.878 182.47 57.9831 184.588 60.524 186.057C67.7491 190.225 75.9433 192.418 84.2843 192.418C92.6252 192.418 100.819 190.225 108.044 186.057L134.922 170.931L204.765 130.575V93.0619C204.745 91.3809 204.575 89.705 204.256 88.0543Z" fill="#4CBB83"/>
<path d="M91.6206 140.272V98.372L135.98 73.0076L139.977 111.747L91.6206 140.272Z" fill="#4CBB83"/>
<path opacity="0.5" d="M91.6206 140.272V98.372L135.98 73.0076L139.977 111.747L91.6206 140.272Z" fill="black"/>
<path d="M91.6206 140.272L139.977 111.747V157.341L129.978 162.42L91.6206 140.272Z" fill="#4CBB83"/>
<path opacity="0.3" d="M91.6206 140.272L139.977 111.747V157.341L129.978 162.42L91.6206 140.272Z" fill="black"/>
<path d="M204.264 88.0543L199.678 90.578L171.766 105.856L166.719 108.602L131.833 127.709C129.619 123.967 123.871 106.508 120.806 103.348C117.854 100.242 114.483 97.5627 110.791 95.3866C106.413 92.8549 102.313 91.6528 98.7698 91.6528C96.6854 91.61 94.6246 92.1006 92.783 93.0778L161.743 53.2718L163.112 52.4757C163.303 52.3801 163.51 52.2926 163.717 52.205L164.338 51.9821C164.338 51.9821 164.338 51.9821 164.378 51.9821L164.999 51.799C165.222 51.7353 165.453 51.6795 165.684 51.6318L166.225 51.5283H166.52C166.838 51.4805 167.165 51.4407 167.499 51.4168H167.905H168.574C170.508 51.4404 172.429 51.7489 174.274 52.3324C176.494 53.0361 178.629 53.9812 180.643 55.1506L180.985 55.3576C192.521 62.0848 202.09 75.8657 204.264 88.0543Z" fill="#4CBB83"/>
<g opacity="0.3">
<path d="M204.264 88.0543L199.678 90.578L171.766 105.856L166.719 108.602L131.833 127.709C129.619 123.967 123.871 106.508 120.806 103.348C117.854 100.242 114.483 97.5627 110.791 95.3866C106.413 92.8549 102.313 91.6528 98.7698 91.6528C96.6854 91.61 94.6246 92.1006 92.783 93.0778L161.743 53.2718L163.112 52.4757C163.303 52.3801 163.51 52.2926 163.717 52.205L164.338 51.9821C164.338 51.9821 164.338 51.9821 164.378 51.9821L164.999 51.799C165.222 51.7353 165.453 51.6795 165.684 51.6318L166.225 51.5283H166.52C166.838 51.4805 167.165 51.4407 167.499 51.4168H167.905H168.574C170.508 51.4404 172.429 51.7489 174.274 52.3324C176.494 53.0361 178.629 53.9812 180.643 55.1506L180.985 55.3576C192.521 62.0848 202.09 75.8657 204.264 88.0543Z" fill="black"/>
</g>
<path d="M198.611 73.5729C198.675 73.6684 198.739 73.7719 198.794 73.8754C198.763 73.748 198.707 73.6445 198.611 73.5729Z" fill="#4CBB83"/>
<path d="M202.313 81.136C203.176 83.3768 203.829 85.6928 204.264 88.0543L199.678 90.578L171.766 105.856L166.719 108.602L131.833 127.709L134.922 170.931L204.765 130.575V93.0619C204.672 88.9715 203.841 84.9315 202.313 81.136Z" fill="#4CBB83"/>
<path d="M201.278 78.6362C200.984 77.9834 200.673 77.3226 200.347 76.6698C200.673 77.3226 201 77.9834 201.278 78.6362Z" fill="#4CBB83"/>
<path d="M199.137 74.369C199.471 74.974 199.805 75.5791 200.116 76.1921C199.805 75.6109 199.479 75.0059 199.137 74.369Z" fill="#4CBB83"/>
<path d="M202.289 81.0644C202.011 80.3479 201.716 79.6393 201.406 78.9308C201.716 79.6393 202.011 80.3479 202.289 81.0644Z" fill="#4CBB83"/>
<g opacity="0.5">
<path d="M198.612 73.5729C198.675 73.6684 198.739 73.7719 198.795 73.8754C198.763 73.748 198.707 73.6445 198.612 73.5729Z" fill="black"/>
<path d="M202.313 81.136C203.176 83.3768 203.829 85.6928 204.264 88.0543L199.678 90.578L171.766 105.856L166.719 108.602L131.833 127.709L134.922 170.931L204.765 130.575V93.0619C204.672 88.9715 203.841 84.9315 202.313 81.136Z" fill="black"/>
<path d="M201.278 78.6362C200.984 77.9834 200.673 77.3226 200.347 76.6698C200.673 77.3226 201 77.9834 201.278 78.6362Z" fill="black"/>
<path d="M199.137 74.369C199.471 74.974 199.805 75.5791 200.116 76.1921C199.805 75.6109 199.479 75.0059 199.137 74.369Z" fill="black"/>
<path d="M202.289 81.0644C202.011 80.3479 201.716 79.6393 201.406 78.9308C201.716 79.6393 202.011 80.3479 202.289 81.0644Z" fill="black"/>
</g>
<path d="M98.7697 96.6047C101.548 96.6047 104.86 97.6635 108.323 99.6777C120.05 106.445 129.962 121.897 129.962 133.425V162.42L91.6046 140.272V105.601C91.6046 98.1651 95.4897 96.6047 98.7697 96.6047ZM98.7697 91.6846C91.5569 91.6846 86.7085 96.6763 86.7085 105.601V143.106L134.89 170.97V133.425C134.89 120.114 124.102 103.101 110.799 95.4184C106.42 92.8947 102.305 91.6846 98.7697 91.6846Z" fill="#4CBB83"/>
<path d="M86.7085 143.106L60.7629 157.436C58.1925 158.853 56.0446 160.928 54.5391 163.447C53.0336 165.967 52.2244 168.841 52.1945 171.776C52.1645 174.711 52.9148 177.601 54.3686 180.151C55.8223 182.701 57.9274 184.819 60.4684 186.288C67.6934 190.455 75.8876 192.649 84.2286 192.649C92.5695 192.649 100.764 190.455 107.989 186.288L134.922 170.931L86.7085 143.106Z" fill="#4CBB83"/>
<path opacity="0.2" d="M86.7085 143.106L60.7629 157.436C58.1925 158.853 56.0446 160.928 54.5391 163.447C53.0336 165.967 52.2244 168.841 52.1945 171.776C52.1645 174.711 52.9148 177.601 54.3686 180.151C55.8223 182.701 57.9274 184.819 60.4684 186.288C67.6934 190.455 75.8876 192.649 84.2286 192.649C92.5695 192.649 100.764 190.455 107.989 186.288L134.922 170.931L86.7085 143.106Z" fill="white"/>
<path d="M150.963 159.506L145.55 162.627V110.362L150.963 107.233V159.506Z" fill="#E0E0E0"/>
<path d="M161.186 111.779L145.55 120.799V110.362L161.186 101.334V111.779Z" fill="#E0E0E0"/>
<path d="M153.296 157.667C153.201 159.43 152.691 161.145 151.809 162.673C150.926 164.202 149.695 165.5 148.217 166.464C145.407 168.057 143.13 166.775 143.13 163.535C143.231 161.778 143.745 160.07 144.629 158.549C145.512 157.028 146.742 155.736 148.217 154.777C151.019 153.113 153.296 154.427 153.296 157.667Z" fill="#4CBB83"/>
<path opacity="0.2" d="M153.296 157.667C153.201 159.43 152.691 161.145 151.809 162.673C150.926 164.202 149.695 165.5 148.217 166.464C145.407 168.057 143.13 166.775 143.13 163.535C143.231 161.778 143.745 160.07 144.629 158.549C145.512 157.028 146.742 155.736 148.217 154.777C151.019 153.113 153.296 154.427 153.296 157.667Z" fill="black"/>
<path d="M154.984 158.646C154.883 160.402 154.371 162.109 153.488 163.631C152.606 165.152 151.379 166.444 149.905 167.404C147.102 168.996 144.825 167.706 144.825 164.466C144.923 162.704 145.433 160.99 146.316 159.461C147.198 157.933 148.427 156.634 149.905 155.669C152.715 154.093 154.984 155.406 154.984 158.646Z" fill="#4CBB83"/>
<path d="M268.447 244.739L277.427 249.946C277.427 249.946 272.889 235.464 275.405 220.903C276.353 215.41 278.359 212.679 279.059 211.206C279.76 209.733 285.19 200.658 280.413 196.47C275.636 192.282 264.451 200.61 264.952 223.045C265.198 230.394 266.373 237.684 268.447 244.739Z" fill="#4CBB83"/>
<path opacity="0.3" d="M268.447 244.739L277.427 249.946C277.427 249.946 272.889 235.464 275.405 220.903C276.353 215.41 278.359 212.679 279.059 211.206C279.76 209.733 285.19 200.658 280.413 196.47C275.636 192.282 264.451 200.61 264.952 223.045C265.198 230.394 266.373 237.684 268.447 244.739Z" fill="black"/>
<path d="M272.651 247.557C272.569 247.555 272.491 247.529 272.424 247.482C272.358 247.435 272.306 247.37 272.277 247.294C272.277 247.199 268.845 237.741 269.02 222.615C269.196 207.488 277.205 199.272 277.284 199.193C277.359 199.118 277.461 199.076 277.567 199.076C277.673 199.076 277.774 199.118 277.849 199.193C277.924 199.268 277.966 199.369 277.966 199.475C277.966 199.581 277.924 199.683 277.849 199.758C277.77 199.838 270 207.719 269.824 222.623C269.649 237.526 273.009 246.912 273.009 247.008C273.045 247.107 273.04 247.216 272.995 247.312C272.95 247.408 272.869 247.481 272.77 247.517C272.733 247.539 272.693 247.552 272.651 247.557Z" fill="white"/>
<path d="M275.413 248.807L290.261 257.564C290.261 257.564 297.06 256.561 296.55 250.16C296.041 243.76 293.27 242.247 296.709 239.437C300.149 236.626 301.04 236.443 300.873 233.681C300.706 230.918 298.859 229.7 297.983 228.633C297.108 227.567 294.679 225.25 296.391 221.922C298.103 218.594 300.419 215.386 296.98 213.865C294.918 212.958 291.463 214.096 289.178 216.524C286.893 218.953 284.991 220.712 282.809 221.301C280.628 221.89 276.114 221.906 276.265 225.648C276.416 229.39 277.388 230.679 276.48 232.335C274.784 235.416 267.484 237.104 275.413 248.807Z" fill="#4CBB83"/>
<path d="M281.464 252.764C281.362 252.764 281.264 252.725 281.19 252.656C281.116 252.586 281.072 252.491 281.066 252.39C281.066 252.167 279.426 230.035 294.807 215.497C294.843 215.452 294.888 215.415 294.94 215.389C294.991 215.363 295.048 215.348 295.105 215.346C295.163 215.343 295.221 215.353 295.274 215.375C295.328 215.396 295.376 215.429 295.416 215.47C295.456 215.512 295.487 215.562 295.506 215.616C295.525 215.671 295.533 215.729 295.528 215.786C295.523 215.844 295.506 215.9 295.477 215.95C295.449 216.001 295.41 216.044 295.364 216.079C280.238 230.345 281.83 252.111 281.83 252.326C281.839 252.432 281.805 252.538 281.737 252.62C281.668 252.702 281.57 252.754 281.464 252.764Z" fill="white"/>
<path d="M284.123 233.784C284.022 233.785 283.926 233.747 283.852 233.679C283.778 233.611 283.733 233.518 283.725 233.418C283.607 231.717 283.147 230.057 282.371 228.538C281.595 227.02 280.52 225.673 279.211 224.581C279.168 224.55 279.132 224.511 279.105 224.467C279.078 224.422 279.06 224.372 279.051 224.321C279.043 224.269 279.045 224.216 279.058 224.165C279.07 224.114 279.092 224.066 279.123 224.024C279.154 223.981 279.193 223.946 279.238 223.918C279.282 223.891 279.332 223.873 279.384 223.865C279.435 223.856 279.488 223.859 279.539 223.871C279.59 223.883 279.638 223.905 279.68 223.936C281.095 225.086 282.256 226.517 283.091 228.138C283.925 229.759 284.415 231.535 284.529 233.354C284.533 233.407 284.527 233.461 284.51 233.511C284.494 233.561 284.467 233.608 284.432 233.648C284.397 233.688 284.355 233.721 284.307 233.744C284.259 233.768 284.208 233.781 284.155 233.784H284.123Z" fill="white"/>
<path d="M283 237.574C282.9 237.576 282.803 237.539 282.73 237.47C282.692 237.433 282.663 237.389 282.642 237.341C282.622 237.292 282.612 237.24 282.612 237.188C282.612 237.135 282.622 237.083 282.642 237.035C282.663 236.986 282.692 236.942 282.73 236.905C282.889 236.722 286.758 232.542 295.706 233.768C295.812 233.784 295.907 233.84 295.973 233.925C296.038 234.009 296.068 234.116 296.057 234.222C296.041 234.327 295.984 234.422 295.9 234.486C295.815 234.55 295.708 234.578 295.603 234.564C287.068 233.394 283.366 237.399 283.327 237.438C283.286 237.484 283.235 237.52 283.179 237.544C283.122 237.567 283.061 237.577 283 237.574Z" fill="white"/>
<path d="M104.948 118.578C104.239 118.578 103.523 118.578 102.822 118.49C102.725 118.483 102.631 118.457 102.545 118.413C102.458 118.369 102.382 118.308 102.319 118.233C102.257 118.159 102.21 118.073 102.182 117.98C102.153 117.888 102.143 117.79 102.153 117.694C102.171 117.5 102.265 117.321 102.414 117.196C102.563 117.071 102.755 117.01 102.949 117.025C103.894 117.113 104.844 117.136 105.792 117.097C105.985 117.094 106.171 117.167 106.312 117.299C106.453 117.431 106.538 117.612 106.548 117.805C106.554 117.998 106.484 118.186 106.353 118.328C106.222 118.469 106.04 118.553 105.847 118.562C105.537 118.578 105.242 118.578 104.948 118.578ZM108.721 118.275C108.535 118.278 108.355 118.21 108.217 118.086C108.079 117.961 107.994 117.788 107.979 117.603C107.964 117.417 108.02 117.233 108.135 117.087C108.251 116.942 108.418 116.845 108.602 116.818C109.536 116.665 110.459 116.45 111.364 116.173C111.547 116.127 111.741 116.153 111.905 116.246C112.068 116.339 112.19 116.492 112.245 116.672C112.299 116.853 112.282 117.047 112.196 117.215C112.111 117.383 111.964 117.512 111.786 117.574C110.821 117.872 109.837 118.103 108.841 118.267L108.721 118.275ZM99.964 118.068H99.8207C98.8355 117.856 97.8628 117.59 96.9068 117.272C96.7227 117.208 96.5707 117.075 96.483 116.902C96.3952 116.728 96.3788 116.526 96.4371 116.34C96.5006 116.157 96.6339 116.005 96.8082 115.919C96.9825 115.832 97.1838 115.818 97.3686 115.879C98.2692 116.176 99.1862 116.42 100.115 116.611C100.21 116.63 100.3 116.668 100.38 116.722C100.459 116.776 100.528 116.845 100.58 116.926C100.633 117.007 100.669 117.098 100.686 117.192C100.703 117.287 100.701 117.385 100.68 117.479C100.648 117.642 100.561 117.789 100.434 117.896C100.306 118.004 100.146 118.064 99.9799 118.068H99.964ZM114.294 116.547C114.128 116.548 113.966 116.492 113.836 116.389C113.706 116.285 113.615 116.14 113.578 115.978C113.541 115.816 113.56 115.646 113.632 115.496C113.704 115.347 113.826 115.226 113.976 115.154L114.485 114.907C114.571 114.859 114.667 114.828 114.765 114.817C114.863 114.806 114.963 114.815 115.058 114.844C115.153 114.873 115.24 114.92 115.316 114.984C115.392 115.048 115.454 115.126 115.499 115.214C115.544 115.303 115.57 115.399 115.576 115.498C115.583 115.597 115.569 115.696 115.536 115.789C115.503 115.883 115.451 115.968 115.384 116.041C115.317 116.114 115.236 116.172 115.146 116.213L114.605 116.484C114.513 116.531 114.413 116.558 114.31 116.563L114.294 116.547ZM94.3911 116.237C94.2836 116.236 94.1776 116.212 94.0806 116.165C93.1717 115.742 92.2866 115.269 91.4295 114.748C91.3475 114.696 91.2765 114.628 91.2207 114.548C91.1649 114.469 91.1253 114.379 91.1042 114.284C91.0831 114.189 91.081 114.091 91.0979 113.995C91.1148 113.899 91.1504 113.807 91.2026 113.725C91.2549 113.643 91.3228 113.572 91.4025 113.516C91.4822 113.461 91.5722 113.421 91.6672 113.4C91.7622 113.379 91.8604 113.377 91.9562 113.394C92.052 113.41 92.1436 113.446 92.2257 113.498C93.0394 113.989 93.8792 114.436 94.7414 114.836C94.8884 114.91 95.0065 115.031 95.0771 115.18C95.1476 115.328 95.1666 115.496 95.131 115.657C95.0954 115.818 95.0072 115.962 94.8804 116.067C94.7536 116.172 94.5955 116.232 94.4309 116.237H94.3911ZM89.3755 113.212C89.2187 113.208 89.0663 113.158 88.9377 113.068C88.1416 112.479 87.3454 111.834 86.6289 111.15C86.5578 111.085 86.5002 111.007 86.4593 110.92C86.4185 110.833 86.3951 110.738 86.3907 110.642C86.3863 110.546 86.4008 110.45 86.4335 110.36C86.4662 110.269 86.5163 110.186 86.5812 110.115C86.646 110.044 86.7242 109.986 86.8113 109.945C86.8984 109.904 86.9926 109.881 87.0887 109.877C87.1849 109.872 87.2809 109.887 87.3714 109.919C87.4619 109.952 87.545 110.002 87.6161 110.067C88.3326 110.72 89.073 111.333 89.8214 111.898C89.9428 111.991 90.032 112.12 90.0765 112.267C90.1209 112.413 90.1184 112.57 90.0692 112.715C90.02 112.86 89.9266 112.986 89.8022 113.075C89.6778 113.164 89.5286 113.212 89.3755 113.212ZM85.0526 109.271C84.9506 109.271 84.8497 109.25 84.7564 109.209C84.6631 109.168 84.5796 109.108 84.5112 109.032C83.8505 108.308 83.1977 107.535 82.5926 106.739C82.5341 106.663 82.4911 106.576 82.4662 106.483C82.4413 106.39 82.435 106.293 82.4476 106.198C82.4729 106.005 82.5738 105.831 82.7279 105.712C82.8821 105.594 83.0769 105.542 83.2695 105.567C83.4621 105.593 83.6367 105.693 83.7549 105.848C84.3361 106.644 84.9571 107.344 85.594 108.045C85.6588 108.116 85.709 108.199 85.7417 108.29C85.7744 108.38 85.7889 108.476 85.7845 108.572C85.7801 108.668 85.7567 108.763 85.7159 108.85C85.675 108.937 85.6173 109.015 85.5462 109.08C85.4212 109.193 85.2611 109.261 85.0924 109.271H85.0526ZM81.5258 104.622C81.4028 104.622 81.2818 104.591 81.1745 104.531C81.0671 104.471 80.977 104.384 80.9128 104.279C80.5943 103.786 80.2838 103.276 79.9893 102.767C79.7903 102.416 79.5912 102.058 79.4002 101.7C79.3271 101.531 79.3204 101.34 79.3813 101.167C79.4422 100.993 79.5664 100.849 79.729 100.762C79.8916 100.676 80.0808 100.654 80.2589 100.701C80.4369 100.748 80.5908 100.86 80.6899 101.015C80.873 101.357 81.064 101.7 81.2551 102.034C81.5417 102.528 81.8363 103.013 82.1468 103.491C82.2159 103.603 82.2542 103.731 82.2576 103.862C82.2611 103.993 82.2296 104.123 82.1664 104.238C82.1033 104.353 82.0106 104.449 81.8981 104.516C81.7855 104.584 81.657 104.62 81.5258 104.622ZM78.7871 99.4468C78.643 99.4473 78.5019 99.4053 78.3815 99.326C78.2611 99.2467 78.1668 99.1336 78.1104 99.001C77.7203 98.0775 77.37 97.1301 77.0675 96.1907C77.0377 96.0992 77.0262 96.0027 77.0337 95.9068C77.0411 95.8109 77.0674 95.7174 77.111 95.6316C77.1547 95.5458 77.2147 95.4695 77.2879 95.407C77.361 95.3444 77.4457 95.2969 77.5372 95.2672C77.723 95.2095 77.9241 95.2272 78.0969 95.3166C78.2698 95.406 78.4004 95.5598 78.4607 95.7448C78.7473 96.6445 79.0817 97.5441 79.4559 98.4278C79.5052 98.5386 79.5259 98.6601 79.5161 98.781C79.5063 98.9019 79.4663 99.0184 79.3997 99.1199C79.3331 99.2213 79.2422 99.3044 79.1351 99.3615C79.0281 99.4186 78.9085 99.4479 78.7871 99.4468ZM77.0038 93.874C76.8363 93.8725 76.6741 93.8142 76.544 93.7086C76.4138 93.603 76.3234 93.4564 76.2873 93.2928C76.0745 92.3123 75.915 91.321 75.8096 90.3232C75.7918 90.1313 75.8504 89.9402 75.9726 89.7911C76.0948 89.6421 76.2708 89.5472 76.4625 89.5271C76.5646 89.5033 76.6708 89.5033 76.773 89.5271C76.8264 89.4281 76.9027 89.3433 76.9954 89.2796C77.0882 89.2159 77.1948 89.1752 77.3064 89.1609C78.2339 89.0328 79.1498 88.8304 80.045 88.5559C80.2308 88.4978 80.4321 88.5159 80.6045 88.6062C80.777 88.6966 80.9065 88.8517 80.9645 89.0375C81.0226 89.2233 81.0045 89.4246 80.9141 89.597C80.8238 89.7695 80.6687 89.899 80.4829 89.957C79.509 90.2541 78.5135 90.475 77.5054 90.6178C77.4446 90.6258 77.3831 90.6258 77.3223 90.6178C77.4178 91.4139 77.5532 92.2101 77.7203 92.9584C77.7413 93.0526 77.7432 93.15 77.726 93.2449C77.7088 93.3398 77.6729 93.4303 77.6202 93.5112C77.5676 93.592 77.4993 93.6615 77.4194 93.7156C77.3396 93.7697 77.2497 93.8073 77.1551 93.8262C77.108 93.8528 77.0569 93.8716 77.0038 93.8819V93.874ZM74.4801 90.8328C73.47 90.8172 72.462 90.7347 71.4628 90.586C71.2721 90.5558 71.101 90.4516 70.9868 90.296C70.8725 90.1404 70.8243 89.946 70.8526 89.755C70.881 89.5641 70.9835 89.392 71.1381 89.2763C71.2926 89.1605 71.4865 89.1105 71.6778 89.137C72.6106 89.2802 73.5524 89.3573 74.496 89.3679C74.6903 89.3679 74.8766 89.4451 75.014 89.5824C75.1513 89.7198 75.2285 89.9061 75.2285 90.1003C75.2285 90.2946 75.1513 90.4809 75.014 90.6182C74.8766 90.7556 74.6903 90.8328 74.496 90.8328H74.4801ZM68.7003 89.973C68.6344 89.9844 68.5671 89.9844 68.5013 89.973C67.5325 89.6898 66.5831 89.3441 65.6591 88.938C65.4807 88.8609 65.3402 88.7162 65.2685 88.5355C65.1969 88.3548 65.1999 88.1531 65.277 87.9747C65.354 87.7963 65.4988 87.6558 65.6795 87.5841C65.8601 87.5124 66.0619 87.5155 66.2403 87.5926C67.1099 87.9673 68.0036 88.2838 68.9152 88.5399C69.101 88.5954 69.2576 88.7216 69.3514 88.8913C69.4452 89.061 69.4687 89.2607 69.4168 89.4475C69.3706 89.6016 69.2759 89.7368 69.1469 89.8328C69.0178 89.9289 68.8612 89.9809 68.7003 89.9809V89.973ZM82.9747 88.9141C82.8127 88.9113 82.6562 88.8549 82.5298 88.7536C82.4033 88.6524 82.3139 88.512 82.2757 88.3546C82.2375 88.1971 82.2525 88.0315 82.3185 87.8835C82.3845 87.7355 82.4977 87.6136 82.6404 87.5368C83.4604 87.1163 84.2296 86.6034 84.9332 86.0083C85.0807 85.8822 85.2718 85.8191 85.4653 85.8325C85.6589 85.8459 85.8394 85.9348 85.9681 86.0799C86.0311 86.153 86.0789 86.2378 86.109 86.3295C86.1391 86.4211 86.1507 86.5178 86.1433 86.6139C86.1359 86.7101 86.1096 86.8039 86.0659 86.8898C86.0222 86.9758 85.9619 87.0523 85.8885 87.1149C85.104 87.7898 84.2405 88.3672 83.3171 88.8345C83.2116 88.8906 83.0942 88.9206 82.9747 88.9221V88.9141ZM76.4067 88.0543C76.2118 88.0501 76.0263 87.9692 75.8907 87.8291C75.755 87.6889 75.6801 87.501 75.6823 87.306C75.6983 86.2991 75.7754 85.2941 75.9131 84.2966C75.9231 84.1984 75.9528 84.1033 76.0005 84.0169C76.0482 83.9304 76.1128 83.8545 76.1905 83.7937C76.2683 83.7329 76.3575 83.6885 76.4528 83.663C76.5482 83.6375 76.6477 83.6316 76.7454 83.6456C76.8431 83.6595 76.937 83.6931 77.0214 83.7442C77.1058 83.7954 77.179 83.863 77.2366 83.9432C77.2942 84.0233 77.335 84.1143 77.3566 84.2106C77.3781 84.3069 77.38 84.4066 77.3621 84.5036C77.2336 85.4405 77.1618 86.3843 77.1471 87.3298C77.145 87.5248 77.0661 87.7111 76.9275 87.8482C76.7889 87.9854 76.6017 88.0623 76.4067 88.0623V88.0543ZM63.3185 87.6801C63.1905 87.6782 63.0649 87.6454 62.9523 87.5846C62.0815 87.0775 61.2414 86.5192 60.4366 85.9127C60.359 85.8562 60.2936 85.7846 60.2442 85.7023C60.1948 85.62 60.1625 85.5286 60.1492 85.4336C60.1358 85.3385 60.1417 85.2417 60.1664 85.149C60.1912 85.0563 60.2343 84.9695 60.2933 84.8937C60.3506 84.8162 60.4227 84.7507 60.5055 84.7011C60.5882 84.6515 60.6799 84.6188 60.7753 84.6047C60.8707 84.5907 60.968 84.5956 61.0615 84.6192C61.155 84.6429 61.243 84.6847 61.3202 84.7424C62.0817 85.3234 62.8795 85.8552 63.7086 86.3347C63.8495 86.4147 63.96 86.5392 64.0225 86.6887C64.0851 86.8382 64.0964 87.0043 64.0545 87.1608C64.0126 87.3174 63.92 87.4557 63.7912 87.554C63.6623 87.6522 63.5045 87.705 63.3424 87.704L63.3185 87.6801ZM87.2977 85.0689C87.1694 85.0693 87.0432 85.0364 86.9315 84.9733C86.8483 84.9248 86.7755 84.8603 86.7172 84.7836C86.659 84.7069 86.6164 84.6194 86.592 84.5263C86.5676 84.4331 86.5618 84.336 86.575 84.2406C86.5882 84.1452 86.62 84.0533 86.6687 83.9702C86.8779 83.6073 87.0537 83.2263 87.1942 82.8318C87.345 82.4113 87.4361 81.9718 87.4649 81.5261C87.4708 81.4287 87.4963 81.3335 87.54 81.2462C87.5836 81.159 87.6444 81.0814 87.7188 81.0182C87.7931 80.955 87.8795 80.9075 87.9727 80.8785C88.0658 80.8495 88.1639 80.8396 88.261 80.8494C88.358 80.8564 88.4526 80.8827 88.5394 80.9267C88.6261 80.9707 88.7033 81.0315 88.7663 81.1056C88.8292 81.1797 88.8769 81.2656 88.9063 81.3583C88.9357 81.451 88.9464 81.5487 88.9377 81.6455C88.8957 82.2211 88.7779 82.7886 88.5874 83.3333C88.4174 83.8133 88.2042 84.277 87.9505 84.7186C87.883 84.8306 87.7871 84.9228 87.6724 84.9857C87.5577 85.0487 87.4284 85.0801 87.2977 85.0768V85.0689ZM58.6373 84.1613C58.4472 84.1603 58.2648 84.0861 58.1278 83.9543L57.6422 83.4607C57.1088 82.9114 56.5913 82.3302 56.0977 81.7251C55.9752 81.5742 55.9178 81.3807 55.9379 81.1874C55.9581 80.9941 56.0542 80.8166 56.2052 80.6942C56.3561 80.5717 56.5496 80.5142 56.7429 80.5344C56.9363 80.5545 57.1137 80.6507 57.2361 80.8016C57.6979 81.3749 58.1915 81.9242 58.693 82.4417L59.1468 82.9034C59.2157 82.9709 59.2704 83.0514 59.3077 83.1402C59.345 83.2291 59.3643 83.3245 59.3643 83.4209C59.3643 83.5173 59.345 83.6127 59.3077 83.7015C59.2704 83.7904 59.2157 83.8709 59.1468 83.9384C59.0172 84.0746 58.8409 84.157 58.6532 84.1692L58.6373 84.1613ZM77.2347 82.2665C77.1635 82.2781 77.0909 82.2781 77.0197 82.2665C76.9277 82.2383 76.8421 82.1923 76.7679 82.131C76.6937 82.0697 76.6323 81.9944 76.5872 81.9094C76.5421 81.8244 76.5142 81.7313 76.5051 81.6355C76.496 81.5396 76.5058 81.443 76.5341 81.351C76.8288 80.3519 77.2544 79.3962 77.7999 78.5088C77.9055 78.3441 78.0722 78.2281 78.2633 78.1863C78.4544 78.1445 78.6543 78.1803 78.819 78.2859C78.9837 78.3915 79.0997 78.5581 79.1415 78.7493C79.1833 78.9404 79.1475 79.1402 79.0419 79.3049C78.564 80.0827 78.1919 80.9207 77.9353 81.7968C77.8844 81.9373 77.7913 82.0586 77.6687 82.1442C77.5461 82.2297 77.4001 82.2752 77.2506 82.2745L77.2347 82.2665ZM54.9433 79.6234C54.8212 79.6238 54.701 79.5934 54.5939 79.5349C54.4867 79.4765 54.396 79.3919 54.3303 79.289C53.785 78.45 53.2828 77.5838 52.8256 76.6937C52.737 76.5205 52.7207 76.3193 52.7804 76.1341C52.8401 75.949 52.9709 75.7951 53.1441 75.7065C53.3172 75.6178 53.5185 75.6015 53.7036 75.6612C53.8888 75.721 54.0426 75.8518 54.1313 76.0249C54.5636 76.8715 55.0392 77.6953 55.5563 78.4929C55.6278 78.6033 55.6683 78.731 55.6734 78.8625C55.6785 78.994 55.6481 79.1244 55.5854 79.2401C55.5227 79.3558 55.4299 79.4524 55.3169 79.5199C55.204 79.5873 55.0749 79.6231 54.9433 79.6234ZM87.7196 79.4403C87.5746 79.4401 87.4328 79.3969 87.3123 79.3162C87.1919 79.2354 87.0981 79.1206 87.0429 78.9865C86.7383 78.2056 86.2091 77.5324 85.5223 77.0519C85.3842 76.937 85.2932 76.7753 85.2665 76.5976C85.2398 76.4199 85.2794 76.2386 85.3777 76.0882C85.476 75.9378 85.6262 75.8288 85.7997 75.7819C85.9731 75.735 86.1577 75.7535 86.3184 75.8338C87.2447 76.4768 87.9595 77.38 88.3724 78.4292C88.4103 78.5175 88.4302 78.6124 88.431 78.7084C88.4318 78.8044 88.4136 78.8996 88.3773 78.9885C88.341 79.0774 88.2874 79.1582 88.2196 79.2262C88.1518 79.2942 88.0711 79.348 87.9823 79.3846C87.9044 79.42 87.8209 79.4416 87.7355 79.4482L87.7196 79.4403ZM80.4192 77.4818C80.3002 77.4813 80.183 77.4521 80.0777 77.3966C79.9724 77.3412 79.882 77.2612 79.8141 77.1634C79.7597 77.0839 79.7214 76.9946 79.7016 76.9003C79.6817 76.8061 79.6806 76.7089 79.6983 76.6142C79.7161 76.5196 79.7523 76.4294 79.805 76.3487C79.8576 76.2681 79.9257 76.1986 80.0052 76.1443C80.9168 75.5138 81.9748 75.1274 83.0782 75.0218C83.1769 75.0075 83.2775 75.0134 83.3738 75.0393C83.4701 75.0651 83.5601 75.1104 83.6383 75.1723C83.7164 75.2342 83.7812 75.3114 83.8285 75.3992C83.8758 75.487 83.9047 75.5835 83.9133 75.6828C83.922 75.7822 83.9103 75.8822 83.879 75.9769C83.8476 76.0715 83.7973 76.1588 83.731 76.2333C83.6648 76.3078 83.584 76.368 83.4936 76.4102C83.4033 76.4524 83.3053 76.4757 83.2056 76.4787C82.3464 76.5615 81.5234 76.866 80.8172 77.3624C80.7029 77.4369 80.5713 77.4808 80.4351 77.4898L80.4192 77.4818ZM52.2604 74.4247C52.1144 74.4239 51.972 74.3796 51.8514 74.2973C51.7309 74.215 51.6376 74.0986 51.5837 73.963C51.2175 73.0474 50.8831 72.1 50.5965 71.1367C50.5636 71.0433 50.5501 70.9443 50.5566 70.8455C50.5631 70.7467 50.5896 70.6502 50.6344 70.5619C50.6792 70.4737 50.7415 70.3954 50.8174 70.3319C50.8934 70.2683 50.9814 70.2209 51.0762 70.1923C51.171 70.1638 51.2706 70.1547 51.369 70.1658C51.4674 70.1768 51.5625 70.2077 51.6487 70.2565C51.7348 70.3053 51.8101 70.3711 51.8701 70.4499C51.9301 70.5287 51.9735 70.6188 51.9977 70.7148C52.2763 71.6303 52.5948 72.5459 52.9451 73.4216C53.0133 73.6023 53.0082 73.8025 52.9308 73.9795C52.8535 74.1565 52.71 74.2963 52.5311 74.369C52.4515 74.4077 52.3647 74.4294 52.2763 74.4327L52.2604 74.4247ZM50.5647 68.8519C50.3967 68.8518 50.2338 68.7941 50.1034 68.6883C49.9729 68.5825 49.8828 68.435 49.8481 68.2707C49.6412 67.3074 49.474 66.3202 49.3386 65.3251C49.3269 65.1398 49.386 64.957 49.5039 64.8136C49.6218 64.6702 49.7898 64.5769 49.9738 64.5527C50.1579 64.5284 50.3443 64.5749 50.4954 64.6828C50.6464 64.7908 50.7509 64.952 50.7876 65.134C50.9149 66.0893 51.0821 67.0367 51.2812 67.9682C51.3212 68.1582 51.2842 68.3564 51.1782 68.5191C51.0722 68.6818 50.9059 68.7958 50.7159 68.8359L50.5647 68.8519ZM49.7685 63.0481C49.5815 63.0465 49.4021 62.9742 49.2662 62.8457C49.1304 62.7173 49.0482 62.5421 49.0361 62.3555C49.0361 61.5594 48.9724 60.7633 48.9724 59.9672V59.3541C48.9806 59.1612 49.0631 58.979 49.2025 58.8454C49.342 58.7119 49.5277 58.6375 49.7208 58.6376C49.8169 58.6376 49.9121 58.6569 50.0006 58.6944C50.0891 58.7319 50.1692 58.7868 50.236 58.8559C50.3029 58.925 50.3552 59.0068 50.3897 59.0965C50.4243 59.1862 50.4405 59.2819 50.4373 59.378V59.9672C50.4373 60.7633 50.4373 61.4957 50.501 62.252C50.5086 62.3493 50.4969 62.4471 50.4665 62.5399C50.4362 62.6326 50.3878 62.7185 50.3242 62.7925C50.2605 62.8664 50.1829 62.9271 50.0958 62.971C50.0086 63.0149 49.9136 63.0411 49.8163 63.0481H49.7685Z" fill="#263238"/>
<path d="M57.1087 36.394L52.7301 55.4213L4.91504 45.1593L57.1087 36.394Z" fill="#4CBB83"/>
<path opacity="0.3" d="M57.1087 36.394L52.7301 55.4213L4.91504 45.1593L57.1087 36.394Z" fill="black"/>
<path d="M4.91504 45.1593L64.449 43.5671L78.4368 65.126L4.91504 45.1593Z" fill="#4CBB83"/>
<path d="M4.91504 45.1593L57.1087 36.394L44.8087 22.1275L4.91504 45.1593Z" fill="#4CBB83"/>
<path d="M212.281 243.426L199.683 243.105L199.033 268.613L211.631 268.934L212.281 243.426Z" fill="#945959"/>
<path d="M195.729 141.004C195.729 141.004 194.846 184.409 195.148 201.605C195.379 214.558 197.401 253.353 197.401 253.353C197.401 253.353 205.57 258.687 214.176 254.229C214.176 254.229 219.143 215.044 217.933 203.237C217.778 201.806 217.778 200.362 217.933 198.93L225.528 133.218L195.729 141.004Z" fill="#37474F"/>
<path d="M203.388 265.08C203.388 265.08 210.37 264.284 211.779 262.007V260.526C211.779 260.526 212.989 261.171 212.758 263.623C212.551 265.9 213.459 269.777 213.594 274.506C213.603 274.892 213.521 275.274 213.355 275.623C213.189 275.971 212.944 276.276 212.639 276.512C211.286 277.555 208.428 279.155 203.388 279.37C201.621 279.45 194.551 283.98 188.668 283.98C182.784 283.98 178.939 281.066 178.939 276.99C178.939 272.914 190.937 269.228 190.937 269.228L196.701 263.655C196.701 263.655 195.578 257.58 199.248 259.037C202.918 260.494 203.388 262.007 203.388 265.08Z" fill="#37474F"/>
<path d="M202.114 268.623C202.036 268.623 201.96 268.598 201.898 268.552C201.835 268.507 201.788 268.442 201.764 268.368C200.538 264.698 196.709 264.021 196.669 264.013C196.621 264.005 196.576 263.988 196.535 263.963C196.494 263.937 196.458 263.904 196.43 263.865C196.402 263.826 196.382 263.781 196.371 263.734C196.36 263.687 196.358 263.639 196.366 263.591C196.384 263.496 196.438 263.411 196.516 263.355C196.595 263.298 196.692 263.275 196.788 263.289C198.071 263.539 199.268 264.117 200.261 264.966C201.254 265.816 202.011 266.908 202.457 268.137C202.487 268.229 202.48 268.329 202.436 268.415C202.393 268.502 202.317 268.568 202.226 268.599L202.114 268.623Z" fill="#FAFAFA"/>
<path d="M199.814 270.899C199.736 270.897 199.661 270.872 199.599 270.826C199.536 270.781 199.489 270.718 199.463 270.645C198.245 266.99 194.408 266.298 194.368 266.29C194.321 266.282 194.275 266.265 194.235 266.24C194.194 266.214 194.159 266.181 194.131 266.141C194.104 266.102 194.085 266.057 194.075 266.01C194.065 265.964 194.064 265.915 194.073 265.868C194.081 265.82 194.098 265.775 194.124 265.734C194.149 265.693 194.182 265.657 194.222 265.629C194.261 265.601 194.305 265.581 194.352 265.57C194.399 265.559 194.448 265.557 194.495 265.565C195.778 265.816 196.975 266.393 197.968 267.243C198.961 268.093 199.718 269.185 200.164 270.414C200.179 270.46 200.184 270.508 200.18 270.556C200.176 270.605 200.163 270.651 200.141 270.694C200.118 270.737 200.088 270.775 200.051 270.807C200.014 270.838 199.971 270.861 199.925 270.876C199.89 270.892 199.852 270.9 199.814 270.899Z" fill="#FAFAFA"/>
<path d="M197.815 272.874C197.739 272.874 197.665 272.851 197.604 272.806C197.542 272.762 197.496 272.699 197.473 272.627C196.255 268.965 192.418 268.272 192.378 268.264C192.326 268.262 192.275 268.249 192.228 268.226C192.181 268.203 192.14 268.17 192.107 268.13C192.074 268.09 192.051 268.043 192.037 267.992C192.024 267.942 192.021 267.889 192.03 267.838C192.038 267.787 192.058 267.738 192.087 267.695C192.116 267.651 192.154 267.615 192.198 267.587C192.242 267.56 192.292 267.542 192.343 267.535C192.395 267.528 192.447 267.533 192.497 267.548C193.781 267.796 194.978 268.373 195.972 269.223C196.966 270.073 197.722 271.166 198.165 272.396C198.196 272.488 198.189 272.588 198.145 272.675C198.102 272.761 198.026 272.827 197.935 272.858L197.815 272.874Z" fill="#FAFAFA"/>
<path d="M178.971 276.99C178.971 281.018 182.737 283.908 188.524 283.972L196.764 280.668C196.764 272.125 190.984 269.228 190.984 269.228C190.984 269.228 178.971 272.922 178.971 276.99Z" fill="#EBEBEB"/>
<path d="M213.419 274.856C212.01 275.947 209.017 277.627 203.746 277.858C201.891 277.937 194.503 282.634 188.349 282.634C184.13 282.634 180.914 281.201 179.305 278.916C180.348 281.934 183.819 283.94 188.7 283.94C194.583 283.94 201.653 279.41 203.42 279.33C208.459 279.115 211.317 277.515 212.671 276.472C212.951 276.254 213.18 275.977 213.343 275.66C213.505 275.344 213.596 274.996 213.61 274.641C213.552 274.717 213.488 274.789 213.419 274.856Z" fill="#263238"/>
<path d="M203.03 147.079C203.03 147.079 204.184 156.903 211.715 162.094L218.363 195.427L222.63 153.75L203.03 147.079Z" fill="#263238"/>
<path d="M246.297 250.419L233.733 251.401L235.722 276.839L248.286 275.857L246.297 250.419Z" fill="#945959"/>
<path d="M241.467 142.039C241.467 142.039 242.987 147.795 243.72 171.544C244.309 190.364 244.747 201.191 244.906 204.869C244.945 205.785 245.043 206.697 245.2 207.6C246.748 217.091 247.784 226.658 248.305 236.26C249.38 254.571 249.468 263.241 249.468 263.241C249.468 263.241 241.698 269.315 232.319 264.546L223.243 209.98L213.69 159.339C213.69 159.339 200.594 154.347 199.439 141.028L241.467 142.039Z" fill="#37474F"/>
<path d="M247.836 270.024L248.035 272.508C248.035 272.508 246.538 274.609 244.77 275.222C244.77 275.222 243.417 270.278 241.021 270.024C238.624 269.769 233.649 269.546 234.317 272.301C234.69 273.737 234.922 275.206 235.01 276.687L230.393 285.293C230.393 285.293 221.022 293.366 224.939 298.509C228.856 303.652 242 300.897 243.298 292.825C243.505 291.609 243.962 290.448 244.639 289.417C245.315 288.385 246.198 287.505 247.23 286.83C248.078 286.296 248.745 285.518 249.144 284.599C249.543 283.681 249.656 282.663 249.468 281.679C249.229 279.832 248.671 276.281 248.839 274.681C249.006 273.081 249.452 270.048 247.836 270.024Z" fill="#37474F"/>
<path d="M224.939 298.509C228.195 302.784 237.796 301.614 241.713 296.471C241.885 295.635 241.971 294.784 241.968 293.931C241.968 284.736 230.393 285.293 230.393 285.293C230.393 285.293 221.022 293.366 224.939 298.509Z" fill="#EBEBEB"/>
<path d="M249.468 281.679C249.468 281.544 249.428 281.384 249.404 281.225C249.314 281.961 249.058 282.666 248.657 283.289C248.256 283.913 247.719 284.437 247.087 284.824C246.02 285.522 245.109 286.434 244.41 287.501C243.711 288.568 243.24 289.768 243.027 291.025C241.705 299.289 228.41 302.171 224.191 297.068C224.353 297.589 224.606 298.077 224.939 298.509C228.856 303.66 242 300.897 243.298 292.825C243.505 291.609 243.962 290.448 244.639 289.417C245.315 288.385 246.198 287.505 247.23 286.83C248.078 286.296 248.744 285.518 249.144 284.599C249.543 283.681 249.655 282.663 249.468 281.679Z" fill="#263238"/>
<path d="M241.817 278.606C241.723 278.607 241.632 278.573 241.562 278.51C238.76 275.859 235.05 277.061 235.01 277.077C234.964 277.097 234.913 277.107 234.863 277.106C234.812 277.106 234.762 277.095 234.716 277.074C234.67 277.053 234.629 277.023 234.595 276.986C234.561 276.948 234.536 276.904 234.52 276.856C234.504 276.808 234.498 276.757 234.502 276.707C234.507 276.657 234.522 276.608 234.546 276.564C234.571 276.519 234.604 276.48 234.644 276.45C234.684 276.419 234.73 276.397 234.779 276.385C236.027 275.996 237.355 275.938 238.632 276.217C239.909 276.496 241.092 277.103 242.064 277.977C242.099 278.01 242.126 278.051 242.145 278.095C242.164 278.139 242.174 278.187 242.174 278.236C242.174 278.284 242.164 278.332 242.145 278.376C242.126 278.421 242.099 278.461 242.064 278.494C241.998 278.561 241.91 278.601 241.817 278.606Z" fill="#FAFAFA"/>
<path d="M240.209 281.798C240.118 281.798 240.03 281.764 239.962 281.703C237.16 279.052 233.45 280.254 233.41 280.27C233.317 280.3 233.216 280.293 233.128 280.249C233.041 280.205 232.975 280.128 232.944 280.035C232.913 279.942 232.921 279.841 232.965 279.753C233.009 279.666 233.086 279.6 233.179 279.569C234.427 279.184 235.754 279.129 237.031 279.408C238.307 279.687 239.489 280.291 240.463 281.161C240.53 281.231 240.567 281.324 240.567 281.42C240.567 281.517 240.53 281.609 240.463 281.679C240.397 281.75 240.306 281.792 240.209 281.798Z" fill="#FAFAFA"/>
<path d="M238.608 284.991C238.517 284.99 238.429 284.956 238.362 284.895C235.559 282.244 231.849 283.446 231.809 283.462C231.717 283.493 231.615 283.485 231.528 283.441C231.441 283.397 231.374 283.32 231.344 283.227C231.313 283.134 231.321 283.033 231.365 282.946C231.409 282.859 231.486 282.792 231.579 282.762C232.827 282.374 234.154 282.317 235.431 282.596C236.708 282.876 237.89 283.481 238.863 284.354C238.93 284.424 238.967 284.516 238.967 284.613C238.967 284.709 238.93 284.802 238.863 284.871C238.796 284.941 238.705 284.984 238.608 284.991Z" fill="#FAFAFA"/>
<path d="M158.057 39.0212C157.299 35.8088 156.767 32.5474 156.465 29.2608C156.274 25.4155 155.159 24.0701 152.81 25.9967C150.462 27.9233 145.112 33.5121 145.43 37.8669C145.691 42.6924 147.226 47.3625 149.881 51.4009L156.727 53.4708L159.466 47.8502L158.057 39.0212Z" fill="#945959"/>
<path d="M187.736 73.8277L174.019 70.7944C174.019 70.7944 168.176 61.3285 164.792 56.3369C161.409 51.3452 159.49 47.89 159.49 47.89L153.121 45.9554L149.873 51.4407C149.873 51.4407 160.549 77.9754 165.501 82.4894C167.993 84.7345 184.09 89.7182 184.09 89.7182C184.09 89.7182 190.849 82.585 187.736 73.8277Z" fill="#945959"/>
<path d="M205.028 77.5535L187.736 73.8276C187.501 79.2891 186.277 84.6625 184.122 89.6864L201.493 95.0681L205.028 77.5535Z" fill="#4CBB83"/>
<path opacity="0.3" d="M205.028 77.5535L187.736 73.8276C187.501 79.2891 186.277 84.6625 184.122 89.6864L201.493 95.0681L205.028 77.5535Z" fill="white"/>
<path d="M229.015 79.6314L237.056 82.163L241.467 105.951L238.855 117.487C238.498 119.054 238.43 120.673 238.656 122.264L241.467 142.039C241.467 142.039 233.505 147.119 218.865 147.119C204.224 147.119 195.729 141.044 195.729 141.044L196.836 96.1588C197.249 89.1757 200.156 82.5731 205.028 77.5535L215.004 78.7079L229.015 79.6314Z" fill="#4CBB83"/>
<path d="M203.667 41.8714C203.667 41.8714 195.984 48.6145 202.663 63.6453L210.473 43.3203L203.667 41.8714Z" fill="#263238"/>
<path d="M229.015 79.6314L219.334 82.7442L215.003 78.7079V60.5643H229.015V79.6314Z" fill="#945959"/>
<path d="M215.003 77.5535C219.732 77.5535 226.945 73.342 226.945 70.3884L228.537 60.5404H215.003V77.5535Z" fill="#703838"/>
<path d="M218.729 37.7474C214.016 37.7474 203.993 40.3746 202.807 52.7065C201.621 65.0385 203.46 75.5393 209.136 75.5393C220.282 75.5393 230.997 74.1222 231.085 55.8751C231.181 39.7377 223.331 37.7474 218.729 37.7474Z" fill="#945959"/>
<path d="M229.015 66.6466L227.2 61.0738C227.064 61.1885 226.898 61.2621 226.721 61.2861C226.545 61.31 226.365 61.2833 226.203 61.2091C226.041 61.1348 225.904 61.016 225.807 60.8666C225.71 60.7172 225.657 60.5433 225.656 60.3652V50.4137C225.656 50.4137 221.022 49.1001 221.516 45.1991C221.516 45.1991 219.127 47.3248 210.044 47.3248C200.96 47.3248 198.739 39.6104 199.646 35.3591C199.646 35.3591 201.334 37.1026 206.143 37.1026C210.951 37.1026 230.974 31.06 231.491 43.1531C231.491 43.1531 233.179 40.6772 235.91 43.1531L232.399 45.2389C232.399 45.2389 236.562 45.1116 235.91 51.2178C235.488 55.1984 234.015 62.2759 233.06 66.6148C232.526 69.039 231.077 71.1638 229.015 72.5459V66.6466Z" fill="#263238"/>
<path d="M211.835 56.3767V64.2981L207.194 62.873L211.835 56.3767Z" fill="#703838"/>
<path d="M219.207 57.6505C219.206 57.943 219.117 58.2285 218.954 58.471C218.79 58.7134 218.558 58.902 218.288 59.0128C218.017 59.1237 217.719 59.1519 217.433 59.0939C217.146 59.0358 216.883 58.8942 216.677 58.6868C216.47 58.4794 216.33 58.2155 216.273 57.9285C216.217 57.6414 216.247 57.3441 216.359 57.074C216.471 56.8039 216.661 56.5731 216.905 56.4107C217.148 56.2484 217.434 56.1617 217.726 56.1617C217.922 56.1617 218.115 56.2003 218.295 56.2752C218.475 56.3501 218.639 56.4599 218.776 56.5982C218.914 56.7366 219.023 56.9008 219.097 57.0813C219.171 57.2619 219.208 57.4553 219.207 57.6505Z" fill="#263238"/>
<path d="M208.117 56.5996C208.117 56.8924 208.03 57.1787 207.868 57.4223C207.705 57.6658 207.474 57.8556 207.203 57.9676C206.932 58.0797 206.635 58.109 206.347 58.0519C206.06 57.9948 205.796 57.8537 205.589 57.6466C205.382 57.4396 205.241 57.1757 205.184 56.8885C205.127 56.6012 205.156 56.3035 205.268 56.0329C205.38 55.7623 205.57 55.5311 205.814 55.3683C206.057 55.2056 206.343 55.1188 206.636 55.1188C207.029 55.1188 207.406 55.2748 207.683 55.5525C207.961 55.8302 208.117 56.2068 208.117 56.5996Z" fill="#263238"/>
<path d="M204.829 53.5106L207.727 51.791C207.727 51.791 206.612 50.6366 205.506 51.3293C204.399 52.0219 204.829 53.5106 204.829 53.5106Z" fill="#263238"/>
<path d="M220.743 54.5854L217.838 52.8737C217.838 52.8737 218.952 51.7194 220.059 52.412C221.165 53.1046 220.743 54.5854 220.743 54.5854Z" fill="#263238"/>
<path d="M212.209 68.1035C212.209 68.1035 214.359 66.7262 216.428 65.1738C216.428 65.1738 217.631 67.5144 215.736 68.7245C213.841 69.9346 212.209 68.1035 212.209 68.1035Z" fill="#703838"/>
<path d="M227.073 61.1534L232.2 55.5965L228.514 53.3832L227.073 61.1534Z" fill="#253239"/>
<path d="M227.917 58.9879C226.237 61.9017 226.675 65.4365 229.015 66.6466C230.52 67.4427 234.962 65.747 236.642 62.8332C238.322 59.9194 237.382 57.4275 235.098 56.1139C232.813 54.8003 229.596 56.0582 227.917 58.9879Z" fill="#945959"/>
<path d="M215.003 78.7079L213.093 81.7411C212.724 82.3247 212.483 82.9794 212.384 83.6626C212.285 84.3458 212.332 85.0421 212.52 85.7062C212.709 86.3702 213.035 86.987 213.478 87.5165C213.921 88.0459 214.471 88.476 215.091 88.7788C216.218 89.3273 217.448 89.634 218.701 89.6794C219.954 89.7248 221.203 89.5077 222.367 89.0422C223.531 88.5767 224.585 87.873 225.461 86.9763C226.337 86.0795 227.016 85.0095 227.455 83.8349L229.047 79.6314L222.041 77.1236L215.003 78.7079Z" fill="#945959"/>
<path d="M159.49 47.89C159.49 47.89 161.831 44.3234 161.791 40.9399C161.751 37.5564 162.173 35.988 162.754 35.176C163.335 34.3639 162.682 33.1777 161.122 33.5837C159.801 33.942 158.168 35.9721 157.81 37.843C157.758 38.1406 157.64 38.4229 157.465 38.6693C157.29 38.9158 157.063 39.1203 156.799 39.268C155.151 40.1517 152.078 42.6834 153.535 48.8215L159.49 47.89Z" fill="#945959"/>
<path d="M153.232 44.6418C153.16 44.6301 153.094 44.59 153.051 44.5303C153.008 44.4706 152.99 44.3962 153.001 44.3234C153.154 43.2157 153.566 42.1597 154.204 41.2412C154.842 40.3227 155.687 39.5676 156.672 39.0371C156.902 38.9136 157.1 38.7388 157.252 38.5262C157.404 38.3136 157.505 38.0689 157.547 37.8111C157.563 37.7396 157.605 37.677 157.666 37.6368C157.728 37.5966 157.802 37.582 157.874 37.5962C157.909 37.6028 157.942 37.6164 157.972 37.636C158.002 37.6557 158.027 37.681 158.047 37.7106C158.067 37.7402 158.081 37.7735 158.088 37.8085C158.096 37.8435 158.096 37.8796 158.089 37.9146C158.028 38.2496 157.893 38.5667 157.693 38.8423C157.493 39.1179 157.234 39.3451 156.934 39.5068C156.024 39.9967 155.242 40.6949 154.653 41.5444C154.063 42.3939 153.683 43.3706 153.543 44.395C153.54 44.4321 153.529 44.4683 153.512 44.5011C153.495 44.534 153.47 44.5629 153.441 44.5861C153.412 44.6093 153.379 44.6262 153.343 44.6358C153.307 44.6453 153.269 44.6474 153.232 44.6418Z" fill="#703838"/>
<path d="M238.234 111.492L241.769 118.944L259.913 126.125L252.596 103.953L238.234 111.492Z" fill="#945959"/>
<path d="M235.981 81.8286C235.981 81.8286 229.931 88.0464 232.55 96.8116C234.024 101.858 235.926 106.769 238.234 111.492C238.234 111.492 248.433 111.795 252.565 103.953L247.366 90.8328C246.546 88.77 245.255 86.9276 243.597 85.4527C241.938 83.9777 239.957 82.9112 237.813 82.3382L235.981 81.8286Z" fill="#4CBB83"/>
<path opacity="0.3" d="M235.981 81.8286C235.981 81.8286 229.931 88.0464 232.55 96.8116C234.024 101.858 235.926 106.769 238.234 111.492C238.234 111.492 248.433 111.795 252.565 103.953L247.366 90.8328C246.546 88.77 245.255 86.9276 243.597 85.4527C241.938 83.9777 239.957 82.9112 237.813 82.3382L235.981 81.8286Z" fill="white"/>
<path d="M240.75 117.559C245.336 118.904 258.854 122.909 258.854 122.909C258.854 122.909 258.957 123.203 259.913 126.093C261.378 130.591 256.728 141.474 240.265 133.577C223.801 125.679 217.79 121.452 217.79 121.452L219.581 111.46C219.581 111.46 235.52 116.022 240.75 117.559Z" fill="#945959"/>
<path d="M241.236 117.789L249.762 120.249L240.217 115.64L241.236 117.789Z" fill="#703838"/>
<path d="M217.034 125.966L206.334 124.827C205.95 124.788 205.588 124.633 205.295 124.383C205.002 124.132 204.792 123.799 204.694 123.426L198.85 101.437C198.81 101.287 198.806 101.129 198.838 100.977C198.87 100.824 198.938 100.682 199.036 100.561C199.133 100.44 199.258 100.343 199.401 100.28C199.543 100.216 199.698 100.187 199.853 100.195L210.203 100.681C210.588 100.696 210.957 100.835 211.258 101.075C211.559 101.316 211.775 101.646 211.875 102.018L218.1 124.732C218.14 124.887 218.141 125.049 218.104 125.205C218.067 125.361 217.993 125.505 217.888 125.627C217.784 125.748 217.651 125.842 217.503 125.901C217.354 125.96 217.193 125.982 217.034 125.966Z" fill="#37474F"/>
<path d="M203.03 103.419C203.03 103.602 202.975 103.781 202.874 103.933C202.772 104.085 202.627 104.204 202.458 104.273C202.289 104.343 202.103 104.361 201.923 104.325C201.744 104.288 201.579 104.2 201.451 104.07C201.322 103.94 201.234 103.774 201.2 103.595C201.165 103.415 201.184 103.229 201.255 103.06C201.327 102.892 201.446 102.748 201.599 102.648C201.752 102.547 201.931 102.494 202.114 102.496C202.358 102.498 202.591 102.596 202.762 102.769C202.934 102.942 203.03 103.176 203.03 103.419Z" fill="#263238"/>
<path d="M219.581 111.492C219.581 111.492 216.484 106.11 212.639 104.805L214.175 110.72C214.175 110.72 211.254 110.951 207.95 110.951C204.646 110.951 201.032 108.722 199.989 108.148C198.946 107.575 197.974 111.572 202.13 119.103C206.286 126.634 217.822 121.491 217.822 121.491L219.581 111.492Z" fill="#945959"/>
<path d="M266.329 3.21967L272.093 6.49969V4.46162C272.093 4.31831 272.093 4.16705 272.093 4.03171C272.093 3.89637 272.093 3.75307 272.093 3.61773V3.56996C272.3 0.86315 274.346 -0.171807 276.87 1.26917C278.001 1.96664 278.97 2.89764 279.712 3.99987C280.278 0.32975 283.271 -0.999774 286.877 1.09402C290.89 3.41074 294.146 9.08708 294.146 13.7046V18.0753C294.149 18.4215 294.241 18.7611 294.414 19.0611C294.587 19.361 294.835 19.6111 295.133 19.7869L298.517 21.7693C299.247 22.2047 299.851 22.8228 300.27 23.5626C300.689 24.3025 300.907 25.1386 300.905 25.9887C300.903 26.3419 300.808 26.6883 300.631 26.9935C300.453 27.2987 300.199 27.5521 299.893 27.7285C299.587 27.9048 299.24 27.9979 298.887 27.9986C298.534 27.9993 298.186 27.9074 297.88 27.7322L266.417 9.53291C265.58 9.04851 264.885 8.35186 264.403 7.51321C263.92 6.67456 263.668 5.72358 263.67 4.75618C263.673 4.44614 263.757 4.14222 263.913 3.87441C264.07 3.60661 264.293 3.38417 264.561 3.22904C264.83 3.07391 265.134 2.99146 265.444 2.98981C265.754 2.98817 266.059 3.0674 266.329 3.21967Z" fill="#E6E6E6"/>
<path d="M291.312 39.881L295.571 42.2694V40.7966C295.571 40.6851 295.571 40.5816 295.571 40.4781C295.571 40.3746 295.571 40.2711 295.571 40.1676C295.722 38.1694 297.235 37.4051 299.082 38.4719C299.919 38.9839 300.636 39.671 301.184 40.4861C301.598 37.7713 303.811 36.7921 306.494 38.3366C308.059 39.3615 309.362 40.7399 310.296 42.3606C311.231 43.9813 311.772 45.799 311.876 47.6671V50.8993C311.876 51.1551 311.943 51.4063 312.07 51.6282C312.197 51.8502 312.38 52.0352 312.6 52.1652L315.108 53.63C315.651 53.9501 316.101 54.4063 316.414 54.9536C316.727 55.501 316.891 56.1205 316.891 56.7508C316.891 57.0116 316.822 57.2677 316.691 57.4936C316.561 57.7194 316.374 57.907 316.148 58.0376C315.922 58.1682 315.666 58.2372 315.405 58.2377C315.145 58.2382 314.888 58.1702 314.662 58.0406L291.375 44.5463C290.762 44.1867 290.254 43.6724 289.902 43.0549C289.55 42.4374 289.366 41.7383 289.369 41.0275C289.37 40.8002 289.43 40.5771 289.544 40.38C289.657 40.1829 289.819 40.0185 290.015 39.903C290.211 39.7875 290.433 39.7247 290.661 39.7209C290.888 39.717 291.112 39.7722 291.312 39.881Z" fill="#E6E6E6"/>
</g>
<defs>
<filter id="filter0_d_415_1007" x="0.915039" y="0.100098" width="349.17" height="360.8" filterUnits="userSpaceOnUse" color-interpolation-filters="sRGB">
<feFlood flood-opacity="0" result="BackgroundImageFix"/>
<feColorMatrix in="SourceAlpha" type="matrix" values="0 0 0 0 0 0 0 0 0 0 0 0 0 0 0 0 0 0 127 0" result="hardAlpha"/>
<feOffset dy="4"/>
<feGaussianBlur stdDeviation="2"/>
<feComposite in2="hardAlpha" operator="out"/>
<feColorMatrix type="matrix" values="0 0 0 0 0 0 0 0 0 0 0 0 0 0 0 0 0 0 0.25 0"/>
<feBlend mode="normal" in2="BackgroundImageFix" result="effect1_dropShadow_415_1007"/>
<feBlend mode="normal" in="SourceGraphic" in2="effect1_dropShadow_415_1007" result="shape"/>
</filter>
</defs>
</svg>
