<svg width="32" height="32" viewBox="0 0 32 32" fill="none" xmlns="http://www.w3.org/2000/svg">
<g clip-path="url(#clip0_468_1690)">
<path d="M15.9972 32C15.5692 32 15.1425 31.888 14.7679 31.6707L10.8532 29.3547C10.2692 29.028 10.5545 28.912 10.7465 28.844C11.5265 28.5733 11.6839 28.5107 12.5172 28.0387C12.6039 27.9893 12.7185 28.008 12.8079 28.0613L15.8159 29.8467C15.8717 29.8763 15.934 29.8918 15.9972 29.8918C16.0604 29.8918 16.1227 29.8763 16.1785 29.8467L27.9052 23.0787C27.9599 23.0457 28.0051 22.9992 28.0364 22.9436C28.0677 22.8879 28.0841 22.8252 28.0839 22.7613V9.22801C28.0838 9.16305 28.0669 9.09922 28.0349 9.04269C28.0029 8.98616 27.9569 8.93885 27.9012 8.90534L16.1799 2.14268C16.1247 2.11185 16.0625 2.09566 15.9992 2.09566C15.936 2.09566 15.8738 2.11185 15.8185 2.14268L4.09988 8.90668C4.04402 8.93984 3.99763 8.98682 3.96517 9.04309C3.93271 9.09937 3.91528 9.16305 3.91455 9.22801V22.7613C3.91481 22.8253 3.93211 22.8881 3.96469 22.9432C3.99726 22.9982 4.04393 23.0436 4.09988 23.0747L7.31188 24.9307C9.05455 25.8027 10.1225 24.776 10.1225 23.744V10.3827C10.1225 10.1933 10.2745 10.0453 10.4639 10.0453H11.9505C12.1359 10.0453 12.2905 10.1947 12.2905 10.3827V23.744C12.2905 26.0707 11.0239 27.404 8.81855 27.404C8.14121 27.404 7.60655 27.404 6.11721 26.6693L3.03988 24.9C2.66583 24.6822 2.35545 24.37 2.13974 23.9948C1.92402 23.6195 1.81052 23.1942 1.81055 22.7613V9.22801C1.81055 8.34934 2.28121 7.52801 3.03988 7.09067L14.7665 0.314675C15.1443 0.107993 15.568 -0.000335693 15.9985 -0.000335693C16.4291 -0.000335693 16.8528 0.107993 17.2305 0.314675L28.9559 7.09067C29.7159 7.52934 30.1879 8.34934 30.1879 9.22801V22.7613C30.1871 23.1944 30.073 23.6196 29.8568 23.9948C29.6407 24.37 29.3301 24.6821 28.9559 24.9L17.2305 31.6707C16.8572 31.888 16.4319 32 15.9972 32ZM25.4652 18.6573C25.4652 16.124 23.7532 15.4493 20.1492 14.9733C16.5079 14.492 16.1372 14.2427 16.1372 13.3907C16.1372 12.6867 16.4505 11.7467 19.1479 11.7467C21.5572 11.7467 22.4452 12.2653 22.8105 13.8893C22.8272 13.9644 22.8689 14.0315 22.9287 14.0797C22.9886 14.128 23.063 14.1544 23.1399 14.1547H24.6612C24.7077 14.1542 24.7536 14.1444 24.7962 14.1259C24.8388 14.1073 24.8772 14.0804 24.9092 14.0467C24.9414 14.0117 24.966 13.9704 24.9814 13.9254C24.9968 13.8804 25.0026 13.8327 24.9985 13.7853C24.7625 10.988 22.9039 9.68401 19.1479 9.68401C15.8039 9.68401 13.8092 11.0947 13.8092 13.4613C13.8092 16.028 15.7932 16.7373 19.0025 17.0547C22.8425 17.4307 23.1399 17.992 23.1399 18.7467C23.1399 20.0573 22.0879 20.616 19.6172 20.616C16.5145 20.616 15.8319 19.8373 15.6025 18.2933C15.5898 18.2132 15.5488 18.1402 15.4869 18.0876C15.4251 18.035 15.3464 18.0063 15.2652 18.0067H13.7492C13.7048 18.0063 13.6607 18.0148 13.6195 18.0316C13.5783 18.0484 13.5409 18.0732 13.5094 18.1046C13.4779 18.136 13.453 18.1733 13.436 18.2144C13.419 18.2555 13.4104 18.2995 13.4105 18.344C13.4105 20.32 14.4852 22.6747 19.6172 22.6747C23.3345 22.676 25.4652 21.2133 25.4652 18.6573Z" fill="#84C400"/>
</g>
<defs>
<clipPath id="clip0_468_1690">
<rect width="32" height="32" fill="white"/>
</clipPath>
</defs>
</svg>
