<svg width="42" height="41" viewBox="0 0 42 41" fill="none" xmlns="http://www.w3.org/2000/svg">
<path d="M27.6875 20.5H32.1458C32.1458 17.5439 30.9715 14.709 28.8813 12.6187C26.791 10.5285 23.9561 9.35417 21 9.35417V13.8125C22.7736 13.8125 24.4746 14.5171 25.7288 15.7712C26.9829 17.0254 27.6875 18.7264 27.6875 20.5ZM36.6042 20.5H41.0625C41.0625 9.35417 32.079 0.4375 21 0.4375V4.89583C29.6046 4.89583 36.6042 11.8731 36.6042 20.5ZM38.8333 28.3021C36.0469 28.3021 33.3719 27.8563 30.8752 27.0315C30.095 26.7863 29.2256 26.9646 28.6015 27.5888L23.6973 32.4929C17.3738 29.268 12.232 24.1262 9.00708 17.8027L13.9113 12.8985C14.5354 12.2744 14.7137 11.405 14.4685 10.6248C13.6229 8.05692 13.1939 5.37019 13.1979 2.66667C13.1979 2.07545 12.9631 1.50846 12.545 1.09041C12.127 0.672358 11.56 0.4375 10.9688 0.4375H3.16667C2.57545 0.4375 2.00846 0.672358 1.59041 1.09041C1.17236 1.50846 0.9375 2.07545 0.9375 2.66667C0.9375 12.7173 4.93009 22.3562 12.0369 29.4631C19.1438 36.5699 28.7827 40.5625 38.8333 40.5625C39.4245 40.5625 39.9915 40.3276 40.4096 39.9096C40.8276 39.4915 41.0625 38.9245 41.0625 38.3333V30.5313C41.0625 29.94 40.8276 29.373 40.4096 28.955C39.9915 28.5369 39.4245 28.3021 38.8333 28.3021Z" fill="url(#paint0_linear_404_892)"/>
<defs>
<linearGradient id="paint0_linear_404_892" x1="21" y1="0.4375" x2="21" y2="40.5625" gradientUnits="userSpaceOnUse">
<stop stop-color="#58D898"/>
<stop offset="1" stop-color="#327A56" stop-opacity="0.3"/>
</linearGradient>
</defs>
</svg>
