<svg width="70" height="70" viewBox="0 0 70 70" fill="none" xmlns="http://www.w3.org/2000/svg">
<g clip-path="url(#clip0_1498_4513)">
<path d="M53.5938 0H16.4062C7.34533 0 0 7.34533 0 16.4062V53.5938C0 62.6547 7.34533 70 16.4062 70H53.5938C62.6547 70 70 62.6547 70 53.5938V16.4062C70 7.34533 62.6547 0 53.5938 0Z" fill="#001E36"/>
<path d="M15.75 48.6828V18.6703C15.75 18.4661 15.8375 18.3496 16.0418 18.3496C16.5375 18.3496 17.0043 18.3496 17.675 18.3203C18.375 18.2911 19.1043 18.2911 19.8918 18.2621C20.6793 18.2328 21.525 18.2328 22.4293 18.2036C23.3332 18.1746 24.2082 18.1746 25.0832 18.1746C27.475 18.1746 29.4582 18.4661 31.0918 19.0786C32.5559 19.5758 33.8909 20.3928 35 21.4703C35.9398 22.4133 36.666 23.5472 37.1293 24.7953C37.5668 26.0203 37.8 27.2746 37.8 28.5871C37.8 31.0953 37.2168 33.1661 36.05 34.7996C34.8832 36.4328 33.25 37.6578 31.3543 38.3578C29.3707 39.0871 27.1832 39.3496 24.7918 39.3496C24.0918 39.3496 23.625 39.3496 23.3332 39.3203C23.0418 39.2911 22.6332 39.2911 22.0793 39.2911V48.6536C22.1082 48.8578 21.9625 49.0328 21.7582 49.0621H16.1C15.8668 49.0621 15.75 48.9453 15.75 48.6828ZM22.1082 23.9786V33.7786C22.5168 33.8078 22.8957 33.8371 23.2457 33.8371H24.7918C25.9293 33.8371 27.0668 33.6621 28.1457 33.3121C29.0793 33.0496 29.8957 32.4953 30.5375 31.7661C31.15 31.0371 31.4418 30.0453 31.4418 28.7621C31.4691 27.8506 31.2364 26.9501 30.7707 26.1661C30.275 25.4078 29.575 24.8246 28.7293 24.5036C27.65 24.0661 26.4832 23.8911 25.2875 23.9203C24.5293 23.9203 23.8582 23.9203 23.3043 23.9496C22.7207 23.9203 22.3125 23.9496 22.1082 23.9786ZM56 31.9996C55.125 31.5328 54.1918 31.2121 53.2 31.0078C52.1207 30.7746 51.0418 30.6286 49.9332 30.6286C49.35 30.5996 48.7375 30.6871 48.1832 30.8328C47.8043 30.9203 47.4832 31.1246 47.2793 31.4161C47.1332 31.6496 47.0457 31.9411 47.0457 32.2036C47.0457 32.4661 47.1625 32.7286 47.3375 32.9621C47.6 33.2828 47.95 33.5453 48.3293 33.7496C49.0055 34.0998 49.6963 34.4209 50.4 34.7121C51.975 35.2371 53.4918 35.9661 54.8918 36.8411C55.8543 37.4536 56.6418 38.2703 57.1957 39.2621C57.6625 40.1953 57.8957 41.2161 57.8668 42.2661C57.8957 43.6371 57.4875 45.0078 56.7293 46.1453C55.9157 47.3096 54.7805 48.2116 53.4625 48.7411C52.0332 49.3536 50.2832 49.6746 48.1832 49.6746C46.8418 49.6746 45.5293 49.5578 44.2168 49.2953C43.1881 49.1176 42.1876 48.8038 41.2418 48.3621C41.0375 48.2453 40.8918 48.0411 40.9207 47.8078V42.7328C40.9207 42.6453 40.95 42.5286 41.0375 42.4703C41.125 42.4121 41.2125 42.4411 41.3 42.4996C42.4375 43.1703 43.6332 43.6371 44.9168 43.9286C46.025 44.2203 47.1918 44.3661 48.3582 44.3661C49.4668 44.3661 50.2543 44.2203 50.7793 43.9578C51.2457 43.7536 51.5668 43.2578 51.5668 42.7328C51.5668 42.3246 51.3332 41.9453 50.8668 41.5661C50.4 41.1871 49.4375 40.7496 48.0082 40.1953C46.5422 39.6787 45.1499 38.9727 43.8668 38.0953C42.9528 37.4439 42.1955 36.5969 41.65 35.6161C41.1832 34.6828 40.95 33.6621 40.9793 32.6411C40.9793 31.3871 41.3293 30.1911 41.9707 29.1121C42.7 27.9453 43.7793 27.0121 45.0332 26.4286C46.4043 25.7286 48.125 25.4078 50.1957 25.4078C51.3918 25.4078 52.6168 25.4953 53.8125 25.6703C54.6875 25.7871 55.5332 26.0203 56.3207 26.3411C56.4375 26.3703 56.5543 26.4871 56.6125 26.6036C56.6418 26.7203 56.6707 26.8371 56.6707 26.9536V31.7078C56.6707 31.8246 56.6125 31.9411 56.525 31.9996C56.2625 32.0578 56.1168 32.0578 56 31.9996Z" fill="#31A8FF"/>
</g>
<defs>
<clipPath id="clip0_1498_4513">
<rect width="70" height="70" fill="white"/>
</clipPath>
</defs>
</svg>
