<svg width="30" height="30" viewBox="0 0 30 30" fill="none" xmlns="http://www.w3.org/2000/svg">
<path d="M0 0.375977V29.6241H30V0.375977H0ZM1.24969 1.62566H28.7494V28.3735H1.24969V1.62566ZM7.25063 7.22629C7.25063 7.14285 7.42688 7.08004 7.52906 7.08004C8.60282 7.03462 9.67747 7.01336 10.7522 7.01629C14.2191 7.01629 15.5662 8.91566 15.5662 11.3475C15.5662 14.5266 13.2619 15.8888 10.4391 15.8888C9.96094 15.8888 9.79969 15.8644 9.46781 15.8644V20.6691C9.46781 20.7713 9.42844 20.8154 9.32625 20.8154H7.39219C7.29 20.8154 7.25063 20.776 7.25063 20.6738V7.22629ZM9.46781 13.8675C9.75562 13.8872 9.98531 13.8872 10.4831 13.8872C11.9428 13.8872 13.32 13.3697 13.32 11.3925C13.32 9.80535 12.3337 9.00004 10.6641 9.00004C10.1709 9.00004 9.6975 9.01973 9.46781 9.03941V13.8675ZM20.2294 12.3779C19.2384 12.3779 18.9066 12.8757 18.9066 13.2863C18.9066 13.74 19.1316 14.0485 20.4544 14.7319C22.4128 15.6844 23.0325 16.5872 23.0325 17.9297C23.0325 19.9266 21.5044 21.001 19.4438 21.001C18.3497 21.001 17.4178 20.7713 16.8806 20.4638C16.8028 20.4244 16.7831 20.3616 16.7831 20.2585V18.4229C16.7831 18.301 16.8422 18.2569 16.9247 18.3207C17.6729 18.8072 18.5466 19.0652 19.4391 19.0632C20.43 19.0632 20.8406 18.6525 20.8406 18.0919C20.8406 17.6382 20.5528 17.2472 19.2975 16.5882C17.52 15.7388 16.7775 14.8744 16.7775 13.4288C16.7775 11.8172 18.0375 10.4794 20.22 10.4794C21.2944 10.4794 22.0509 10.6454 22.4663 10.8263C22.5684 10.89 22.5881 10.9922 22.5881 11.0757V12.7894C22.5881 12.8916 22.5244 12.9554 22.4025 12.9113C21.8456 12.5841 21.0253 12.3741 20.2247 12.3741L20.2294 12.3779Z" fill="#58D898"/>
</svg>
