<svg width="32" height="32" viewBox="0 0 32 32" fill="none" xmlns="http://www.w3.org/2000/svg">
<g clip-path="url(#clip0_468_1678)">
<path d="M15.8644 0.00900269C7.76044 0.00900269 8.26644 3.52338 8.26644 3.52338L8.27544 7.16438H16.0089V8.2575H5.20382C5.20382 8.2575 0.0180664 7.66938 0.0180664 15.8463C0.0180664 24.0234 4.54432 23.7334 4.54432 23.7334H7.24557V19.9389C7.24557 19.9389 7.09994 15.4126 11.6996 15.4126H19.3698C19.3698 15.4126 23.6792 15.4823 23.6792 11.2478V4.24625C23.6792 4.24625 24.3337 0.00900269 15.8644 0.00900269ZM11.6002 2.4575C11.7829 2.45734 11.9639 2.49321 12.1328 2.56307C12.3017 2.63293 12.4551 2.7354 12.5843 2.86462C12.7135 2.99385 12.816 3.14728 12.8859 3.31615C12.9557 3.48502 12.9916 3.666 12.9914 3.84875C12.9916 4.0315 12.9557 4.21249 12.8859 4.38136C12.816 4.55022 12.7135 4.70366 12.5843 4.83288C12.4551 4.9621 12.3017 5.06458 12.1328 5.13444C11.9639 5.20429 11.7829 5.24017 11.6002 5.24C11.4174 5.24017 11.2365 5.20429 11.0676 5.13444C10.8987 5.06458 10.7453 4.9621 10.6161 4.83288C10.4868 4.70366 10.3844 4.55022 10.3145 4.38136C10.2447 4.21249 10.2088 4.0315 10.2089 3.84875C10.2088 3.666 10.2447 3.48502 10.3145 3.31615C10.3844 3.14728 10.4868 2.99385 10.6161 2.86462C10.7453 2.7354 10.8987 2.63293 11.0676 2.56307C11.2365 2.49321 11.4174 2.45734 11.6002 2.4575Z" fill="url(#paint0_linear_468_1678)"/>
<path d="M16.0947 31.7657C24.1987 31.7657 23.6927 28.2514 23.6927 28.2514L23.6837 24.6105H15.95V23.5174H26.7552C26.7552 23.5174 31.9409 24.1055 31.9409 15.9284C31.9409 7.75137 27.4147 8.04137 27.4147 8.04137H24.7134V11.8357C24.7134 11.8357 24.859 16.362 20.2594 16.362H12.5892C12.5892 16.362 8.27979 16.2924 8.27979 20.527V27.5286C8.27979 27.5286 7.62541 31.7657 16.0945 31.7657H16.0947ZM20.3589 29.3175C20.1762 29.3177 19.9952 29.2818 19.8263 29.2119C19.6574 29.1421 19.504 29.0396 19.3748 28.9104C19.2456 28.7812 19.1431 28.6277 19.0732 28.4588C19.0034 28.29 18.9675 28.109 18.9677 27.9262C18.9675 27.7435 19.0033 27.5625 19.0732 27.3936C19.143 27.2247 19.2455 27.0713 19.3747 26.942C19.504 26.8128 19.6574 26.7103 19.8263 26.6405C19.9952 26.5706 20.1762 26.5347 20.3589 26.5349C20.5417 26.5347 20.7226 26.5706 20.8915 26.6404C21.0604 26.7103 21.2138 26.8128 21.343 26.942C21.4723 27.0712 21.5747 27.2246 21.6446 27.3935C21.7145 27.5624 21.7503 27.7434 21.7502 27.9261C21.7503 28.1089 21.7145 28.2899 21.6446 28.4587C21.5747 28.6276 21.4723 28.781 21.343 28.9102C21.2138 29.0395 21.0604 29.1419 20.8915 29.2118C20.7226 29.2817 20.5417 29.3175 20.3589 29.3174V29.3175Z" fill="url(#paint1_linear_468_1678)"/>
</g>
<defs>
<linearGradient id="paint0_linear_468_1678" x1="3.08583" y1="2.86533" x2="18.9058" y2="18.5275" gradientUnits="userSpaceOnUse">
<stop stop-color="#387EB8"/>
<stop offset="1" stop-color="#366994"/>
</linearGradient>
<linearGradient id="paint1_linear_468_1678" x1="12.7962" y1="12.9226" x2="29.785" y2="28.9827" gradientUnits="userSpaceOnUse">
<stop stop-color="#FFE052"/>
<stop offset="1" stop-color="#FFC331"/>
</linearGradient>
<clipPath id="clip0_468_1678">
<rect width="32" height="31.875" fill="white"/>
</clipPath>
</defs>
</svg>
