<svg width="76" height="57" viewBox="0 0 76 57" fill="none" xmlns="http://www.w3.org/2000/svg">
<path d="M21.5862 1.37789C22.074 1.01202 22.6291 0.745826 23.2198 0.594492C23.8105 0.443159 24.4252 0.409652 25.0289 0.495887C25.6325 0.582121 26.2133 0.786409 26.7379 1.09708C27.2626 1.40776 27.721 1.81874 28.0869 2.30656C28.4527 2.79437 28.7189 3.34948 28.8703 3.94017C29.0216 4.53087 29.0551 5.14558 28.9689 5.74923C28.8826 6.35287 28.6783 6.93362 28.3677 7.45831C28.057 7.983 27.646 8.44137 27.1582 8.80723C19.896 14.2539 15.7356 19.5519 13.3535 24.1767C16.6242 23.3348 20.0759 23.5327 23.2288 24.743C26.3818 25.9532 29.0794 28.1157 30.9466 30.9298C32.8139 33.7439 33.7581 37.0698 33.648 40.4453C33.5378 43.8207 32.3788 47.078 30.3321 49.7644C28.2854 52.4508 25.4526 54.4328 22.2274 55.435C19.0023 56.4372 15.545 56.4097 12.3362 55.3563C9.12745 54.303 6.32651 52.2762 4.32275 49.5576C2.31898 46.839 1.21194 43.5637 1.15549 40.1869C0.560507 34.4846 1.37034 28.7232 3.51431 23.4059C6.28638 16.413 11.7052 8.78866 21.5862 1.37789ZM63.3762 1.37789C63.8641 1.01202 64.4192 0.745826 65.0099 0.594492C65.6006 0.443159 66.2153 0.409652 66.8189 0.495887C67.4226 0.582121 68.0033 0.786409 68.528 1.09708C69.0527 1.40776 69.5111 1.81874 69.8769 2.30656C70.2428 2.79437 70.509 3.34948 70.6603 3.94017C70.8117 4.53087 70.8452 5.14558 70.7589 5.74923C70.6727 6.35287 70.4684 6.93362 70.1577 7.45831C69.847 7.983 69.4361 8.44137 68.9483 8.80723C61.6861 14.2539 57.5256 19.5519 55.1436 24.1767C58.4142 23.3348 61.8659 23.5327 65.0189 24.743C68.1718 25.9532 70.8694 28.1157 72.7367 30.9298C74.604 33.7439 75.5481 37.0698 75.438 40.4453C75.3279 43.8207 74.1689 47.078 72.1222 49.7644C70.0754 52.4508 67.2426 54.4328 64.0175 55.435C60.7923 56.4372 57.3351 56.4097 54.1263 55.3563C50.9175 54.303 48.1166 52.2762 46.1128 49.5576C44.109 46.839 43.002 43.5637 42.9456 40.1869C42.3506 34.4846 43.1604 28.7232 45.3044 23.4059C48.0811 16.413 53.4952 8.78866 63.3762 1.37789Z" fill="url(#paint0_linear_1335_1135)"/>
<defs>
<linearGradient id="paint0_linear_1335_1135" x1="38.2062" y1="0.449219" x2="38.2062" y2="56.167" gradientUnits="userSpaceOnUse">
<stop stop-color="#58D898"/>
<stop offset="1" stop-color="#327A56" stop-opacity="0.8"/>
</linearGradient>
</defs>
</svg>
