<svg width="70" height="70" viewBox="0 0 70 70" fill="none" xmlns="http://www.w3.org/2000/svg">
<mask id="mask0_1499_4533" style="mask-type:alpha" maskUnits="userSpaceOnUse" x="0" y="0" width="70" height="70">
<path fill-rule="evenodd" clip-rule="evenodd" d="M49.6384 69.522C50.1954 69.7392 50.7912 69.8394 51.3886 69.8165C51.986 69.7935 52.5723 69.6479 53.1111 69.3886L67.5229 62.4537C68.265 62.0964 68.8913 61.5368 69.3295 60.8394C69.7678 60.142 70.0003 59.335 70.0002 58.5113V11.4893C70.0004 10.6655 69.768 9.85838 69.3297 9.16084C68.8914 8.46329 68.2651 7.90365 67.5229 7.54633L53.1111 0.612502C52.2967 0.220669 51.3807 0.091659 50.4898 0.243327C49.5989 0.394995 48.7772 0.81984 48.1383 1.45906L20.5485 26.6295L8.53145 17.5071C7.98936 17.0955 7.32028 16.8867 6.64031 16.9169C5.96033 16.947 5.31238 17.2143 4.80887 17.6723L0.954493 21.1783C0.654121 21.4515 0.414078 21.7844 0.249721 22.1556C0.0853633 22.5269 0.000309689 22.9284 8.44133e-07 23.3344C-0.000308001 23.7405 0.0841348 24.1421 0.247927 24.5136C0.41172 24.8851 0.651256 25.2184 0.951212 25.492L11.373 35L0.951759 44.5085C0.651966 44.7822 0.412573 45.1154 0.248883 45.4869C0.085192 45.8584 0.000804051 46.2599 0.00111286 46.6658C0.00142168 47.0718 0.0864204 47.4732 0.250676 47.8444C0.414932 48.2156 0.654831 48.5485 0.95504 48.8217L4.80941 52.3277C5.31281 52.7859 5.96074 53.0533 6.64075 53.0836C7.32075 53.1139 7.98988 52.9051 8.53199 52.4934L20.549 43.3716L48.1389 68.5415C48.5655 68.9688 49.0758 69.3028 49.6384 69.522ZM52.5106 19.1095L31.5768 35L52.5111 50.8911L52.5106 19.1095Z" fill="white"/>
</mask>
<g mask="url(#mask0_1499_4533)">
<path d="M67.5233 7.55782L53.1 0.612504C52.2853 0.220411 51.3689 0.0912615 50.4776 0.242931C49.5863 0.3946 48.7642 0.819587 48.1251 1.45907L0.908962 44.5085C0.608945 44.7821 0.36935 45.1153 0.205514 45.4868C0.0416784 45.8582 -0.0427885 46.2598 -0.0424796 46.6658C-0.0421708 47.0719 0.042907 47.4733 0.207308 47.8446C0.371708 48.2158 0.61181 48.5486 0.912243 48.8217L4.76881 52.3277C5.27265 52.7859 5.92093 53.0533 6.60125 53.0835C7.28157 53.1138 7.95103 52.905 8.49357 52.4934L65.3527 9.35868C67.2602 7.91165 70.0001 9.27227 70.0001 11.6665V11.4991C70 10.6756 69.7676 9.86879 69.3294 9.17147C68.8913 8.47415 68.2652 7.91519 67.5233 7.55782Z" fill="#0065A9"/>
<g filter="url(#filter0_d_1499_4533)">
<path d="M67.5233 62.4427L53.1 69.387C52.2854 69.7792 51.3691 69.9085 50.4778 69.757C49.5865 69.6056 48.7643 69.1808 48.1251 68.5415L0.908962 25.4915C0.608945 25.2179 0.36935 24.8847 0.205514 24.5133C0.0416784 24.1418 -0.0427885 23.7402 -0.0424796 23.3342C-0.0421708 22.9282 0.042907 22.5267 0.207308 22.1554C0.371708 21.7842 0.61181 21.4514 0.912243 21.1783L4.76881 17.6723C5.27265 17.2141 5.92093 16.9468 6.60125 16.9165C7.28157 16.8862 7.95103 17.095 8.49357 17.5066L65.3527 60.6408C67.2602 62.0884 70.0001 60.7277 70.0001 58.3335V58.5009C70 59.3244 69.7676 60.1312 69.3294 60.8285C68.8913 61.5259 68.2652 62.0854 67.5233 62.4427Z" fill="#007ACC"/>
</g>
<g filter="url(#filter1_d_1499_4533)">
<path d="M53.1005 69.3886C52.2856 69.7804 51.3691 69.9094 50.4778 69.7576C49.5864 69.6059 48.7643 69.1809 48.125 68.5415C49.7394 70.1559 52.5 69.0123 52.5 66.7291V3.27031C52.5 0.987109 49.7394 -0.156406 48.125 1.45852C48.7643 0.819111 49.5864 0.394143 50.4778 0.242386C51.3691 0.0906281 52.2856 0.21958 53.1005 0.611406L67.521 7.54687C68.2636 7.90397 68.8902 8.4635 69.3288 9.16107C69.7674 9.85863 70 10.6659 70 11.4898V58.5112C70 59.3352 69.7674 60.1425 69.3288 60.84C68.8902 61.5376 68.2636 62.0971 67.521 62.4542L53.1005 69.3886Z" fill="#1F9CF0"/>
</g>
<path opacity="0.25" fill-rule="evenodd" clip-rule="evenodd" d="M49.5962 69.522C50.1531 69.7391 50.7488 69.8393 51.3461 69.8164C51.9435 69.7934 52.5297 69.6478 53.0683 69.3886L67.4801 62.4537C68.2224 62.0963 68.8487 61.5367 69.2869 60.8392C69.7252 60.1416 69.9576 59.3345 69.9574 58.5107V11.4893C69.9576 10.6655 69.7252 9.85838 69.2869 9.16084C68.8487 8.46329 68.2224 7.90365 67.4801 7.54633L53.0683 0.612502C52.254 0.220669 51.3379 0.091659 50.447 0.243327C49.5561 0.394995 48.7344 0.81984 48.0956 1.45906L20.5057 26.6295L8.4887 17.5077C7.94661 17.0961 7.27753 16.8872 6.59756 16.9174C5.91759 16.9476 5.26963 17.2148 4.76612 17.6728L0.911747 21.1788C0.61145 21.4521 0.371475 21.785 0.207166 22.1562C0.0428565 22.5275 -0.0421708 22.929 -0.0424796 23.335C-0.0427885 23.741 0.041628 24.1426 0.205372 24.5141C0.369116 24.8856 0.608585 25.2189 0.908466 25.4926L11.3303 35L0.909013 44.508C0.609057 44.7816 0.369521 45.1149 0.205729 45.4864C0.041936 45.8579 -0.0425067 46.2595 -0.0421979 46.6656C-0.041889 47.0716 0.0431646 47.4731 0.207522 47.8444C0.37188 48.2156 0.611922 48.5485 0.912294 48.8217L4.76667 52.3277C5.27011 52.7858 5.91803 53.0532 6.59801 53.0834C7.27798 53.1137 7.9471 52.905 8.48925 52.4934L20.5068 43.371L48.0967 68.5415C48.5231 68.9688 49.0338 69.3027 49.5962 69.522ZM52.4684 19.1089L31.534 35L52.4684 50.8905V19.1089Z" fill="url(#paint0_linear_1499_4533)"/>
</g>
<defs>
<filter id="filter0_d_1499_4533" x="-4.60014" y="12.3559" width="79.1578" height="62.0204" filterUnits="userSpaceOnUse" color-interpolation-filters="sRGB">
<feFlood flood-opacity="0" result="BackgroundImageFix"/>
<feColorMatrix in="SourceAlpha" type="matrix" values="0 0 0 0 0 0 0 0 0 0 0 0 0 0 0 0 0 0 127 0" result="hardAlpha"/>
<feOffset/>
<feGaussianBlur stdDeviation="2.27883"/>
<feColorMatrix type="matrix" values="0 0 0 0 0 0 0 0 0 0 0 0 0 0 0 0 0 0 0.25 0"/>
<feBlend mode="overlay" in2="BackgroundImageFix" result="effect1_dropShadow_1499_4533"/>
<feBlend mode="normal" in="SourceGraphic" in2="effect1_dropShadow_1499_4533" result="shape"/>
</filter>
<filter id="filter1_d_1499_4533" x="43.5673" y="-4.37716" width="30.9903" height="78.7543" filterUnits="userSpaceOnUse" color-interpolation-filters="sRGB">
<feFlood flood-opacity="0" result="BackgroundImageFix"/>
<feColorMatrix in="SourceAlpha" type="matrix" values="0 0 0 0 0 0 0 0 0 0 0 0 0 0 0 0 0 0 127 0" result="hardAlpha"/>
<feOffset/>
<feGaussianBlur stdDeviation="2.27883"/>
<feColorMatrix type="matrix" values="0 0 0 0 0 0 0 0 0 0 0 0 0 0 0 0 0 0 0.25 0"/>
<feBlend mode="overlay" in2="BackgroundImageFix" result="effect1_dropShadow_1499_4533"/>
<feBlend mode="normal" in="SourceGraphic" in2="effect1_dropShadow_1499_4533" result="shape"/>
</filter>
<linearGradient id="paint0_linear_1499_4533" x1="34.9575" y1="0.18047" x2="34.9575" y2="69.8195" gradientUnits="userSpaceOnUse">
<stop stop-color="white"/>
<stop offset="1" stop-color="white" stop-opacity="0"/>
</linearGradient>
</defs>
</svg>
